<?xml version="1.0" encoding="utf-8" standalone="no"?>
<!DOCTYPE svg PUBLIC "-//W3C//DTD SVG 1.1//EN"
  "http://www.w3.org/Graphics/SVG/1.1/DTD/svg11.dtd">
<svg xmlns:xlink="http://www.w3.org/1999/xlink" width="432pt" height="288pt" viewBox="0 0 432 288" xmlns="http://www.w3.org/2000/svg" version="1.1">
 <metadata>
  <rdf:RDF xmlns:dc="http://purl.org/dc/elements/1.1/" xmlns:cc="http://creativecommons.org/ns#" xmlns:rdf="http://www.w3.org/1999/02/22-rdf-syntax-ns#">
   <cc:Work>
    <dc:type rdf:resource="http://purl.org/dc/dcmitype/StillImage"/>
    <dc:date>2022-12-16T10:57:54.603595</dc:date>
    <dc:format>image/svg+xml</dc:format>
    <dc:creator>
     <cc:Agent>
      <dc:title>Matplotlib v3.5.0, https://matplotlib.org/</dc:title>
     </cc:Agent>
    </dc:creator>
   </cc:Work>
  </rdf:RDF>
 </metadata>
 <defs>
  <style type="text/css">*{stroke-linejoin: round; stroke-linecap: butt}</style>
 </defs>
 <g id="figure_1">
  <g id="patch_1">
   <path d="M 0 288 
L 432 288 
L 432 0 
L 0 0 
L 0 288 
z
" style="fill: none"/>
  </g>
  <g id="axes_1">
   <g id="patch_2">
    <path d="M 54 252 
L 388.8 252 
L 388.8 34.56 
L 54 34.56 
z
" style="fill: #ffffff"/>
   </g>
   <g id="matplotlib.axis_1">
    <g id="xtick_1">
     <g id="line2d_1">
      <path d="M 69.218182 252 
L 69.218182 34.56 
" clip-path="url(#p66b9deab7d)" style="fill: none; stroke: #b0b0b0; stroke-width: 0.8; stroke-linecap: square"/>
     </g>
     <g id="line2d_2">
      <defs>
       <path id="madb6edc043" d="M 0 0 
L 0 3.5 
" style="stroke: #000000; stroke-width: 0.8"/>
      </defs>
      <g>
       <use xlink:href="#madb6edc043" x="69.218182" y="252" style="stroke: #000000; stroke-width: 0.8"/>
      </g>
     </g>
     <g id="text_1">
      <!-- 0 -->
      <g transform="translate(66.036932 266.598437)scale(0.1 -0.1)">
       <defs>
        <path id="DejaVuSans-30" d="M 2034 4250 
Q 1547 4250 1301 3770 
Q 1056 3291 1056 2328 
Q 1056 1369 1301 889 
Q 1547 409 2034 409 
Q 2525 409 2770 889 
Q 3016 1369 3016 2328 
Q 3016 3291 2770 3770 
Q 2525 4250 2034 4250 
z
M 2034 4750 
Q 2819 4750 3233 4129 
Q 3647 3509 3647 2328 
Q 3647 1150 3233 529 
Q 2819 -91 2034 -91 
Q 1250 -91 836 529 
Q 422 1150 422 2328 
Q 422 3509 836 4129 
Q 1250 4750 2034 4750 
z
" transform="scale(0.015625)"/>
       </defs>
       <use xlink:href="#DejaVuSans-30"/>
      </g>
     </g>
    </g>
    <g id="xtick_2">
     <g id="line2d_3">
      <path d="M 132.103231 252 
L 132.103231 34.56 
" clip-path="url(#p66b9deab7d)" style="fill: none; stroke: #b0b0b0; stroke-width: 0.8; stroke-linecap: square"/>
     </g>
     <g id="line2d_4">
      <g>
       <use xlink:href="#madb6edc043" x="132.103231" y="252" style="stroke: #000000; stroke-width: 0.8"/>
      </g>
     </g>
     <g id="text_2">
      <!-- 50 -->
      <g transform="translate(125.740731 266.598437)scale(0.1 -0.1)">
       <defs>
        <path id="DejaVuSans-35" d="M 691 4666 
L 3169 4666 
L 3169 4134 
L 1269 4134 
L 1269 2991 
Q 1406 3038 1543 3061 
Q 1681 3084 1819 3084 
Q 2600 3084 3056 2656 
Q 3513 2228 3513 1497 
Q 3513 744 3044 326 
Q 2575 -91 1722 -91 
Q 1428 -91 1123 -41 
Q 819 9 494 109 
L 494 744 
Q 775 591 1075 516 
Q 1375 441 1709 441 
Q 2250 441 2565 725 
Q 2881 1009 2881 1497 
Q 2881 1984 2565 2268 
Q 2250 2553 1709 2553 
Q 1456 2553 1204 2497 
Q 953 2441 691 2322 
L 691 4666 
z
" transform="scale(0.015625)"/>
       </defs>
       <use xlink:href="#DejaVuSans-35"/>
       <use xlink:href="#DejaVuSans-30" x="63.623047"/>
      </g>
     </g>
    </g>
    <g id="xtick_3">
     <g id="line2d_5">
      <path d="M 194.988279 252 
L 194.988279 34.56 
" clip-path="url(#p66b9deab7d)" style="fill: none; stroke: #b0b0b0; stroke-width: 0.8; stroke-linecap: square"/>
     </g>
     <g id="line2d_6">
      <g>
       <use xlink:href="#madb6edc043" x="194.988279" y="252" style="stroke: #000000; stroke-width: 0.8"/>
      </g>
     </g>
     <g id="text_3">
      <!-- 100 -->
      <g transform="translate(185.444529 266.598437)scale(0.1 -0.1)">
       <defs>
        <path id="DejaVuSans-31" d="M 794 531 
L 1825 531 
L 1825 4091 
L 703 3866 
L 703 4441 
L 1819 4666 
L 2450 4666 
L 2450 531 
L 3481 531 
L 3481 0 
L 794 0 
L 794 531 
z
" transform="scale(0.015625)"/>
       </defs>
       <use xlink:href="#DejaVuSans-31"/>
       <use xlink:href="#DejaVuSans-30" x="63.623047"/>
       <use xlink:href="#DejaVuSans-30" x="127.246094"/>
      </g>
     </g>
    </g>
    <g id="xtick_4">
     <g id="line2d_7">
      <path d="M 257.873328 252 
L 257.873328 34.56 
" clip-path="url(#p66b9deab7d)" style="fill: none; stroke: #b0b0b0; stroke-width: 0.8; stroke-linecap: square"/>
     </g>
     <g id="line2d_8">
      <g>
       <use xlink:href="#madb6edc043" x="257.873328" y="252" style="stroke: #000000; stroke-width: 0.8"/>
      </g>
     </g>
     <g id="text_4">
      <!-- 150 -->
      <g transform="translate(248.329578 266.598437)scale(0.1 -0.1)">
       <use xlink:href="#DejaVuSans-31"/>
       <use xlink:href="#DejaVuSans-35" x="63.623047"/>
       <use xlink:href="#DejaVuSans-30" x="127.246094"/>
      </g>
     </g>
    </g>
    <g id="xtick_5">
     <g id="line2d_9">
      <path d="M 320.758377 252 
L 320.758377 34.56 
" clip-path="url(#p66b9deab7d)" style="fill: none; stroke: #b0b0b0; stroke-width: 0.8; stroke-linecap: square"/>
     </g>
     <g id="line2d_10">
      <g>
       <use xlink:href="#madb6edc043" x="320.758377" y="252" style="stroke: #000000; stroke-width: 0.8"/>
      </g>
     </g>
     <g id="text_5">
      <!-- 200 -->
      <g transform="translate(311.214627 266.598437)scale(0.1 -0.1)">
       <defs>
        <path id="DejaVuSans-32" d="M 1228 531 
L 3431 531 
L 3431 0 
L 469 0 
L 469 531 
Q 828 903 1448 1529 
Q 2069 2156 2228 2338 
Q 2531 2678 2651 2914 
Q 2772 3150 2772 3378 
Q 2772 3750 2511 3984 
Q 2250 4219 1831 4219 
Q 1534 4219 1204 4116 
Q 875 4013 500 3803 
L 500 4441 
Q 881 4594 1212 4672 
Q 1544 4750 1819 4750 
Q 2544 4750 2975 4387 
Q 3406 4025 3406 3419 
Q 3406 3131 3298 2873 
Q 3191 2616 2906 2266 
Q 2828 2175 2409 1742 
Q 1991 1309 1228 531 
z
" transform="scale(0.015625)"/>
       </defs>
       <use xlink:href="#DejaVuSans-32"/>
       <use xlink:href="#DejaVuSans-30" x="63.623047"/>
       <use xlink:href="#DejaVuSans-30" x="127.246094"/>
      </g>
     </g>
    </g>
    <g id="xtick_6">
     <g id="line2d_11">
      <path d="M 383.643426 252 
L 383.643426 34.56 
" clip-path="url(#p66b9deab7d)" style="fill: none; stroke: #b0b0b0; stroke-width: 0.8; stroke-linecap: square"/>
     </g>
     <g id="line2d_12">
      <g>
       <use xlink:href="#madb6edc043" x="383.643426" y="252" style="stroke: #000000; stroke-width: 0.8"/>
      </g>
     </g>
     <g id="text_6">
      <!-- 250 -->
      <g transform="translate(374.099676 266.598437)scale(0.1 -0.1)">
       <use xlink:href="#DejaVuSans-32"/>
       <use xlink:href="#DejaVuSans-35" x="63.623047"/>
       <use xlink:href="#DejaVuSans-30" x="127.246094"/>
      </g>
     </g>
    </g>
   </g>
   <g id="matplotlib.axis_2">
    <g id="ytick_1">
     <g id="line2d_13">
      <path d="M 54 230.067879 
L 388.8 230.067879 
" clip-path="url(#p66b9deab7d)" style="fill: none; stroke: #b0b0b0; stroke-width: 0.8; stroke-linecap: square"/>
     </g>
     <g id="line2d_14">
      <defs>
       <path id="m672726fb22" d="M 0 0 
L -3.5 0 
" style="stroke: #000000; stroke-width: 0.8"/>
      </defs>
      <g>
       <use xlink:href="#m672726fb22" x="54" y="230.067879" style="stroke: #000000; stroke-width: 0.8"/>
      </g>
     </g>
     <g id="text_7">
      <!-- 0.20 -->
      <g transform="translate(24.734375 233.867097)scale(0.1 -0.1)">
       <defs>
        <path id="DejaVuSans-2e" d="M 684 794 
L 1344 794 
L 1344 0 
L 684 0 
L 684 794 
z
" transform="scale(0.015625)"/>
       </defs>
       <use xlink:href="#DejaVuSans-30"/>
       <use xlink:href="#DejaVuSans-2e" x="63.623047"/>
       <use xlink:href="#DejaVuSans-32" x="95.410156"/>
       <use xlink:href="#DejaVuSans-30" x="159.033203"/>
      </g>
     </g>
    </g>
    <g id="ytick_2">
     <g id="line2d_15">
      <path d="M 54 197.537546 
L 388.8 197.537546 
" clip-path="url(#p66b9deab7d)" style="fill: none; stroke: #b0b0b0; stroke-width: 0.8; stroke-linecap: square"/>
     </g>
     <g id="line2d_16">
      <g>
       <use xlink:href="#m672726fb22" x="54" y="197.537546" style="stroke: #000000; stroke-width: 0.8"/>
      </g>
     </g>
     <g id="text_8">
      <!-- 0.25 -->
      <g transform="translate(24.734375 201.336765)scale(0.1 -0.1)">
       <use xlink:href="#DejaVuSans-30"/>
       <use xlink:href="#DejaVuSans-2e" x="63.623047"/>
       <use xlink:href="#DejaVuSans-32" x="95.410156"/>
       <use xlink:href="#DejaVuSans-35" x="159.033203"/>
      </g>
     </g>
    </g>
    <g id="ytick_3">
     <g id="line2d_17">
      <path d="M 54 165.007213 
L 388.8 165.007213 
" clip-path="url(#p66b9deab7d)" style="fill: none; stroke: #b0b0b0; stroke-width: 0.8; stroke-linecap: square"/>
     </g>
     <g id="line2d_18">
      <g>
       <use xlink:href="#m672726fb22" x="54" y="165.007213" style="stroke: #000000; stroke-width: 0.8"/>
      </g>
     </g>
     <g id="text_9">
      <!-- 0.30 -->
      <g transform="translate(24.734375 168.806432)scale(0.1 -0.1)">
       <defs>
        <path id="DejaVuSans-33" d="M 2597 2516 
Q 3050 2419 3304 2112 
Q 3559 1806 3559 1356 
Q 3559 666 3084 287 
Q 2609 -91 1734 -91 
Q 1441 -91 1130 -33 
Q 819 25 488 141 
L 488 750 
Q 750 597 1062 519 
Q 1375 441 1716 441 
Q 2309 441 2620 675 
Q 2931 909 2931 1356 
Q 2931 1769 2642 2001 
Q 2353 2234 1838 2234 
L 1294 2234 
L 1294 2753 
L 1863 2753 
Q 2328 2753 2575 2939 
Q 2822 3125 2822 3475 
Q 2822 3834 2567 4026 
Q 2313 4219 1838 4219 
Q 1578 4219 1281 4162 
Q 984 4106 628 3988 
L 628 4550 
Q 988 4650 1302 4700 
Q 1616 4750 1894 4750 
Q 2613 4750 3031 4423 
Q 3450 4097 3450 3541 
Q 3450 3153 3228 2886 
Q 3006 2619 2597 2516 
z
" transform="scale(0.015625)"/>
       </defs>
       <use xlink:href="#DejaVuSans-30"/>
       <use xlink:href="#DejaVuSans-2e" x="63.623047"/>
       <use xlink:href="#DejaVuSans-33" x="95.410156"/>
       <use xlink:href="#DejaVuSans-30" x="159.033203"/>
      </g>
     </g>
    </g>
    <g id="ytick_4">
     <g id="line2d_19">
      <path d="M 54 132.476881 
L 388.8 132.476881 
" clip-path="url(#p66b9deab7d)" style="fill: none; stroke: #b0b0b0; stroke-width: 0.8; stroke-linecap: square"/>
     </g>
     <g id="line2d_20">
      <g>
       <use xlink:href="#m672726fb22" x="54" y="132.476881" style="stroke: #000000; stroke-width: 0.8"/>
      </g>
     </g>
     <g id="text_10">
      <!-- 0.35 -->
      <g transform="translate(24.734375 136.2761)scale(0.1 -0.1)">
       <use xlink:href="#DejaVuSans-30"/>
       <use xlink:href="#DejaVuSans-2e" x="63.623047"/>
       <use xlink:href="#DejaVuSans-33" x="95.410156"/>
       <use xlink:href="#DejaVuSans-35" x="159.033203"/>
      </g>
     </g>
    </g>
    <g id="ytick_5">
     <g id="line2d_21">
      <path d="M 54 99.946548 
L 388.8 99.946548 
" clip-path="url(#p66b9deab7d)" style="fill: none; stroke: #b0b0b0; stroke-width: 0.8; stroke-linecap: square"/>
     </g>
     <g id="line2d_22">
      <g>
       <use xlink:href="#m672726fb22" x="54" y="99.946548" style="stroke: #000000; stroke-width: 0.8"/>
      </g>
     </g>
     <g id="text_11">
      <!-- 0.40 -->
      <g transform="translate(24.734375 103.745767)scale(0.1 -0.1)">
       <defs>
        <path id="DejaVuSans-34" d="M 2419 4116 
L 825 1625 
L 2419 1625 
L 2419 4116 
z
M 2253 4666 
L 3047 4666 
L 3047 1625 
L 3713 1625 
L 3713 1100 
L 3047 1100 
L 3047 0 
L 2419 0 
L 2419 1100 
L 313 1100 
L 313 1709 
L 2253 4666 
z
" transform="scale(0.015625)"/>
       </defs>
       <use xlink:href="#DejaVuSans-30"/>
       <use xlink:href="#DejaVuSans-2e" x="63.623047"/>
       <use xlink:href="#DejaVuSans-34" x="95.410156"/>
       <use xlink:href="#DejaVuSans-30" x="159.033203"/>
      </g>
     </g>
    </g>
    <g id="ytick_6">
     <g id="line2d_23">
      <path d="M 54 67.416216 
L 388.8 67.416216 
" clip-path="url(#p66b9deab7d)" style="fill: none; stroke: #b0b0b0; stroke-width: 0.8; stroke-linecap: square"/>
     </g>
     <g id="line2d_24">
      <g>
       <use xlink:href="#m672726fb22" x="54" y="67.416216" style="stroke: #000000; stroke-width: 0.8"/>
      </g>
     </g>
     <g id="text_12">
      <!-- 0.45 -->
      <g transform="translate(24.734375 71.215434)scale(0.1 -0.1)">
       <use xlink:href="#DejaVuSans-30"/>
       <use xlink:href="#DejaVuSans-2e" x="63.623047"/>
       <use xlink:href="#DejaVuSans-34" x="95.410156"/>
       <use xlink:href="#DejaVuSans-35" x="159.033203"/>
      </g>
     </g>
    </g>
    <g id="ytick_7">
     <g id="line2d_25">
      <path d="M 54 34.885883 
L 388.8 34.885883 
" clip-path="url(#p66b9deab7d)" style="fill: none; stroke: #b0b0b0; stroke-width: 0.8; stroke-linecap: square"/>
     </g>
     <g id="line2d_26">
      <g>
       <use xlink:href="#m672726fb22" x="54" y="34.885883" style="stroke: #000000; stroke-width: 0.8"/>
      </g>
     </g>
     <g id="text_13">
      <!-- 0.50 -->
      <g transform="translate(24.734375 38.685102)scale(0.1 -0.1)">
       <use xlink:href="#DejaVuSans-30"/>
       <use xlink:href="#DejaVuSans-2e" x="63.623047"/>
       <use xlink:href="#DejaVuSans-35" x="95.410156"/>
       <use xlink:href="#DejaVuSans-30" x="159.033203"/>
      </g>
     </g>
    </g>
   </g>
   <g id="line2d_27">
    <path d="M 69.218182 44.443636 
L 70.475883 60.897553 
L 71.733584 65.113737 
L 72.991285 83.697123 
L 74.248986 92.619861 
L 75.506687 94.163676 
L 76.764388 105.30773 
L 78.022089 105.492912 
L 79.27979 118.266082 
L 80.537491 124.068935 
L 81.795192 128.71668 
L 83.052893 129.116822 
L 84.310594 138.570505 
L 85.568295 140.200442 
L 88.083696 147.744953 
L 89.341397 145.49842 
L 90.599098 152.038297 
L 91.856799 153.59831 
L 93.1145 159.204662 
L 94.372201 155.652147 
L 95.629902 160.224622 
L 96.887603 161.863459 
L 98.145304 167.438778 
L 99.403005 168.508502 
L 100.660706 167.777366 
L 101.918407 166.750668 
L 103.176108 173.792825 
L 104.433809 169.857243 
L 105.69151 170.443586 
L 106.949211 176.478124 
L 108.206912 172.090592 
L 109.464613 171.748579 
L 110.722314 178.579326 
L 111.980015 177.395892 
L 113.237716 175.929503 
L 114.495417 177.524934 
L 115.753118 178.388964 
L 117.010819 182.468641 
L 118.26852 182.193521 
L 119.526221 183.271769 
L 120.783922 180.862607 
L 122.041623 182.137826 
L 123.299324 181.098504 
L 124.557025 184.830291 
L 125.814726 181.231538 
L 127.072427 182.123263 
L 128.330128 184.354349 
L 129.587829 185.18671 
L 130.84553 183.77297 
L 132.103231 189.553362 
L 133.360932 187.646906 
L 134.618633 187.346429 
L 135.876334 183.751058 
L 137.134035 185.829025 
L 138.391736 189.353569 
L 139.649437 188.276589 
L 140.907137 191.312919 
L 142.164838 192.972312 
L 143.422539 193.64652 
L 144.68024 192.319555 
L 145.937941 190.108842 
L 147.195642 191.783007 
L 148.453343 192.439621 
L 150.968745 188.131804 
L 152.226446 193.43425 
L 153.484147 194.129542 
L 154.741848 196.805505 
L 155.999549 190.82831 
L 157.25725 192.196937 
L 158.514951 194.121659 
L 159.772652 191.559579 
L 161.030353 197.141731 
L 162.288054 196.204175 
L 163.545755 193.255893 
L 164.803456 194.436975 
L 166.061157 197.548671 
L 167.318858 197.713047 
L 168.576559 192.780268 
L 169.83426 197.688765 
L 171.091961 196.118234 
L 172.349662 196.618024 
L 173.607363 199.027348 
L 174.865064 196.052144 
L 176.122765 197.218712 
L 177.380466 200.09877 
L 178.638167 201.256524 
L 179.895868 195.007149 
L 181.153569 198.809625 
L 182.41127 200.101521 
L 183.668971 197.319983 
L 184.926672 200.611567 
L 186.184373 200.337758 
L 187.442074 198.555542 
L 188.699775 200.321166 
L 189.957476 199.477008 
L 191.215177 201.44593 
L 192.472878 199.633894 
L 193.730579 202.381597 
L 194.988279 200.823345 
L 196.24598 202.609555 
L 198.761382 197.084688 
L 200.019083 199.459864 
L 201.276784 200.306183 
L 202.534485 203.955113 
L 203.792186 201.896016 
L 205.049887 201.300351 
L 206.307588 201.792065 
L 207.565289 202.937568 
L 208.82299 203.736662 
L 210.080691 202.046952 
L 211.338392 203.058854 
L 212.596093 201.487883 
L 215.111495 204.914058 
L 216.369196 202.060817 
L 217.626897 203.048689 
L 218.884598 203.293497 
L 220.142299 203.380784 
L 221.4 205.24039 
L 222.657701 205.665092 
L 223.915402 209.309081 
L 225.173103 201.203243 
L 226.430804 206.246455 
L 227.688505 201.235412 
L 228.946206 203.009105 
L 230.203907 204.225121 
L 231.461608 205.739517 
L 232.719309 206.927359 
L 233.97701 204.212755 
L 235.234711 204.472326 
L 236.492412 202.493274 
L 237.750113 205.828348 
L 239.007814 207.454589 
L 240.265515 202.853854 
L 241.523216 204.478296 
L 242.780917 205.388139 
L 244.038618 204.600085 
L 245.296319 201.421674 
L 246.55402 204.893952 
L 247.811721 203.26774 
L 249.069421 206.608626 
L 250.327122 206.060366 
L 251.584823 204.708332 
L 252.842524 206.881286 
L 254.100225 206.40591 
L 255.357926 204.800271 
L 256.615627 205.690573 
L 257.873328 208.351229 
L 259.131029 206.954295 
L 260.38873 207.604783 
L 261.646431 202.891197 
L 262.904132 206.248615 
L 264.161833 207.7921 
L 265.419534 207.564692 
L 266.677235 206.844814 
L 267.934936 203.17055 
L 271.708039 209.147279 
L 272.96574 206.4125 
L 274.223441 207.304537 
L 275.481142 205.530518 
L 276.738843 205.159889 
L 277.996544 204.038829 
L 279.254245 204.800719 
L 280.511946 209.373105 
L 281.769647 208.057356 
L 283.027348 207.428188 
L 284.285049 207.982167 
L 285.54275 205.8768 
L 286.800451 206.828176 
L 288.058152 206.551484 
L 290.573554 207.65749 
L 291.831255 211.562425 
L 293.088956 207.225152 
L 294.346657 207.942512 
L 295.604358 207.977207 
L 296.862059 207.036083 
L 298.11976 208.761479 
L 299.377461 209.690943 
L 300.635162 209.748652 
L 301.892863 210.592119 
L 303.150563 210.758465 
L 304.408264 211.955327 
L 305.665965 208.66852 
L 306.923666 208.890278 
L 308.181367 212.341638 
L 309.439068 207.380252 
L 310.696769 209.186731 
L 311.95447 208.172513 
L 313.212171 208.761907 
L 314.469872 208.957516 
L 315.727573 207.826419 
L 316.985274 211.788134 
L 318.242975 208.902677 
L 319.500676 210.689018 
L 320.758377 209.771917 
L 322.016078 208.542041 
L 323.273779 210.135473 
L 324.53148 208.88968 
L 325.789181 212.111832 
L 327.046882 209.856495 
L 328.304583 211.238525 
L 329.562284 209.824822 
L 330.819985 209.561081 
L 332.077686 210.216462 
L 333.335387 209.692927 
L 334.593088 211.782517 
L 335.850789 211.497409 
L 337.10849 212.515625 
L 338.366191 211.566059 
L 339.623892 211.646292 
L 340.881593 210.14918 
L 342.139294 211.236949 
L 343.396995 210.4847 
L 344.654696 210.197165 
L 345.912397 209.702728 
L 347.170098 213.259909 
L 348.427799 210.141326 
L 349.6855 213.406957 
L 350.943201 211.064729 
L 352.200902 209.316027 
L 353.458603 212.263058 
L 354.716304 211.091698 
L 355.974005 212.962813 
L 357.231705 210.423806 
L 358.489406 211.943453 
L 359.747107 209.158305 
L 361.004808 213.639661 
L 362.262509 210.631629 
L 363.52021 210.022971 
L 364.777911 210.177829 
L 366.035612 210.16319 
L 367.293313 211.737363 
L 368.551014 207.468603 
L 369.808715 209.641573 
L 371.066416 210.619703 
L 372.324117 210.322127 
L 373.581818 209.604358 
L 373.581818 209.604358 
" clip-path="url(#p66b9deab7d)" style="fill: none; stroke: #1f77b4; stroke-width: 1.5; stroke-linecap: square"/>
   </g>
   <g id="line2d_28">
    <path d="M 69.218182 101.040687 
L 70.475883 113.680495 
L 71.733584 124.554455 
L 74.248986 141.322679 
L 78.022089 165.155723 
L 80.537491 177.112005 
L 83.052893 186.486418 
L 84.310594 189.856509 
L 86.825995 198.359429 
L 88.083696 201.136368 
L 89.341397 203.417589 
L 90.599098 206.00816 
L 91.856799 208.088364 
L 93.1145 209.702433 
L 94.372201 210.983805 
L 95.629902 212.445553 
L 96.887603 213.638647 
L 98.145304 214.405829 
L 99.403005 215.481661 
L 100.660706 216.903672 
L 105.69151 221.630944 
L 109.464613 223.605056 
L 110.722314 223.913549 
L 111.980015 224.63573 
L 113.237716 225.057619 
L 114.495417 225.671696 
L 117.010819 227.061441 
L 120.783922 228.286642 
L 124.557025 229.190014 
L 125.814726 229.325404 
L 127.072427 229.750416 
L 128.330128 229.836797 
L 130.84553 230.902902 
L 133.360932 231.46175 
L 135.876334 232.389141 
L 139.649437 233.301741 
L 140.907137 233.228682 
L 142.164838 233.295935 
L 143.422539 233.564505 
L 145.937941 233.451594 
L 148.453343 233.653167 
L 150.968745 234.229075 
L 153.484147 235.194721 
L 154.741848 235.458783 
L 157.25725 235.511801 
L 158.514951 235.666732 
L 159.772652 236.085911 
L 162.288054 236.192474 
L 163.545755 236.36455 
L 164.803456 236.092615 
L 168.576559 236.517798 
L 171.091961 237.106187 
L 172.349662 237.239309 
L 173.607363 237.253829 
L 174.865064 237.080897 
L 176.122765 237.028692 
L 177.380466 237.297904 
L 179.895868 237.422596 
L 181.153569 237.667802 
L 183.668971 237.704031 
L 184.926672 237.685004 
L 187.442074 237.958765 
L 188.699775 238.350515 
L 189.957476 238.564112 
L 193.730579 238.507272 
L 194.988279 238.449918 
L 201.276784 238.863577 
L 202.534485 239.128152 
L 207.565289 239.436246 
L 210.080691 239.223605 
L 213.853794 239.496239 
L 218.884598 239.115658 
L 222.657701 239.72972 
L 223.915402 239.558015 
L 226.430804 239.683192 
L 228.946206 239.727852 
L 231.461608 239.684676 
L 235.234711 239.78037 
L 239.007814 240.581343 
L 240.265515 240.800118 
L 241.523216 240.785926 
L 242.780917 240.640252 
L 245.296319 240.669884 
L 246.55402 240.809118 
L 247.811721 240.635359 
L 251.584823 240.646214 
L 255.357926 240.901219 
L 266.677235 240.937584 
L 270.450338 241.158662 
L 274.223441 240.826606 
L 275.481142 240.584117 
L 276.738843 240.756457 
L 279.254245 240.576379 
L 280.511946 240.816065 
L 283.027348 240.776091 
L 285.54275 240.953038 
L 286.800451 241.383885 
L 288.058152 241.325104 
L 289.315853 241.137752 
L 290.573554 241.093941 
L 291.831255 241.226151 
L 294.346657 241.184879 
L 295.604358 241.243631 
L 296.862059 241.172591 
L 300.635162 241.352091 
L 303.150563 241.781932 
L 305.665965 241.679013 
L 306.923666 241.918891 
L 309.439068 241.682222 
L 310.696769 241.516394 
L 314.469872 241.733429 
L 318.242975 241.599914 
L 319.500676 241.482518 
L 320.758377 241.485541 
L 322.016078 241.696208 
L 323.273779 241.785419 
L 325.789181 241.733628 
L 330.819985 241.997049 
L 333.335387 241.814553 
L 337.10849 242.068146 
L 338.366191 241.959464 
L 342.139294 242.041137 
L 343.396995 242.027715 
L 347.170098 241.588182 
L 350.943201 241.810367 
L 352.200902 241.717896 
L 354.716304 241.756429 
L 355.974005 241.932178 
L 358.489406 241.914498 
L 368.551014 242.039226 
L 369.808715 241.760273 
L 372.324117 241.656726 
L 373.581818 241.676438 
L 373.581818 241.676438 
" clip-path="url(#p66b9deab7d)" style="fill: none; stroke: #ff7f0e; stroke-width: 1.5; stroke-linecap: square"/>
   </g>
   <g id="patch_3">
    <path d="M 54 252 
L 54 34.56 
" style="fill: none; stroke: #000000; stroke-width: 0.8; stroke-linejoin: miter; stroke-linecap: square"/>
   </g>
   <g id="patch_4">
    <path d="M 388.8 252 
L 388.8 34.56 
" style="fill: none; stroke: #000000; stroke-width: 0.8; stroke-linejoin: miter; stroke-linecap: square"/>
   </g>
   <g id="patch_5">
    <path d="M 54 252 
L 388.8 252 
" style="fill: none; stroke: #000000; stroke-width: 0.8; stroke-linejoin: miter; stroke-linecap: square"/>
   </g>
   <g id="patch_6">
    <path d="M 54 34.56 
L 388.8 34.56 
" style="fill: none; stroke: #000000; stroke-width: 0.8; stroke-linejoin: miter; stroke-linecap: square"/>
   </g>
   <g id="legend_1">
    <g id="patch_7">
     <path d="M 304.03125 71.91625 
L 381.8 71.91625 
Q 383.8 71.91625 383.8 69.91625 
L 383.8 41.56 
Q 383.8 39.56 381.8 39.56 
L 304.03125 39.56 
Q 302.03125 39.56 302.03125 41.56 
L 302.03125 69.91625 
Q 302.03125 71.91625 304.03125 71.91625 
z
" style="fill: #ffffff; opacity: 0.8; stroke: #cccccc; stroke-linejoin: miter"/>
    </g>
    <g id="line2d_29">
     <path d="M 306.03125 47.658437 
L 316.03125 47.658437 
L 326.03125 47.658437 
" style="fill: none; stroke: #1f77b4; stroke-width: 1.5; stroke-linecap: square"/>
    </g>
    <g id="text_14">
     <!-- train loss -->
     <g transform="translate(334.03125 51.158437)scale(0.1 -0.1)">
      <defs>
       <path id="DejaVuSans-74" d="M 1172 4494 
L 1172 3500 
L 2356 3500 
L 2356 3053 
L 1172 3053 
L 1172 1153 
Q 1172 725 1289 603 
Q 1406 481 1766 481 
L 2356 481 
L 2356 0 
L 1766 0 
Q 1100 0 847 248 
Q 594 497 594 1153 
L 594 3053 
L 172 3053 
L 172 3500 
L 594 3500 
L 594 4494 
L 1172 4494 
z
" transform="scale(0.015625)"/>
       <path id="DejaVuSans-72" d="M 2631 2963 
Q 2534 3019 2420 3045 
Q 2306 3072 2169 3072 
Q 1681 3072 1420 2755 
Q 1159 2438 1159 1844 
L 1159 0 
L 581 0 
L 581 3500 
L 1159 3500 
L 1159 2956 
Q 1341 3275 1631 3429 
Q 1922 3584 2338 3584 
Q 2397 3584 2469 3576 
Q 2541 3569 2628 3553 
L 2631 2963 
z
" transform="scale(0.015625)"/>
       <path id="DejaVuSans-61" d="M 2194 1759 
Q 1497 1759 1228 1600 
Q 959 1441 959 1056 
Q 959 750 1161 570 
Q 1363 391 1709 391 
Q 2188 391 2477 730 
Q 2766 1069 2766 1631 
L 2766 1759 
L 2194 1759 
z
M 3341 1997 
L 3341 0 
L 2766 0 
L 2766 531 
Q 2569 213 2275 61 
Q 1981 -91 1556 -91 
Q 1019 -91 701 211 
Q 384 513 384 1019 
Q 384 1609 779 1909 
Q 1175 2209 1959 2209 
L 2766 2209 
L 2766 2266 
Q 2766 2663 2505 2880 
Q 2244 3097 1772 3097 
Q 1472 3097 1187 3025 
Q 903 2953 641 2809 
L 641 3341 
Q 956 3463 1253 3523 
Q 1550 3584 1831 3584 
Q 2591 3584 2966 3190 
Q 3341 2797 3341 1997 
z
" transform="scale(0.015625)"/>
       <path id="DejaVuSans-69" d="M 603 3500 
L 1178 3500 
L 1178 0 
L 603 0 
L 603 3500 
z
M 603 4863 
L 1178 4863 
L 1178 4134 
L 603 4134 
L 603 4863 
z
" transform="scale(0.015625)"/>
       <path id="DejaVuSans-6e" d="M 3513 2113 
L 3513 0 
L 2938 0 
L 2938 2094 
Q 2938 2591 2744 2837 
Q 2550 3084 2163 3084 
Q 1697 3084 1428 2787 
Q 1159 2491 1159 1978 
L 1159 0 
L 581 0 
L 581 3500 
L 1159 3500 
L 1159 2956 
Q 1366 3272 1645 3428 
Q 1925 3584 2291 3584 
Q 2894 3584 3203 3211 
Q 3513 2838 3513 2113 
z
" transform="scale(0.015625)"/>
       <path id="DejaVuSans-20" transform="scale(0.015625)"/>
       <path id="DejaVuSans-6c" d="M 603 4863 
L 1178 4863 
L 1178 0 
L 603 0 
L 603 4863 
z
" transform="scale(0.015625)"/>
       <path id="DejaVuSans-6f" d="M 1959 3097 
Q 1497 3097 1228 2736 
Q 959 2375 959 1747 
Q 959 1119 1226 758 
Q 1494 397 1959 397 
Q 2419 397 2687 759 
Q 2956 1122 2956 1747 
Q 2956 2369 2687 2733 
Q 2419 3097 1959 3097 
z
M 1959 3584 
Q 2709 3584 3137 3096 
Q 3566 2609 3566 1747 
Q 3566 888 3137 398 
Q 2709 -91 1959 -91 
Q 1206 -91 779 398 
Q 353 888 353 1747 
Q 353 2609 779 3096 
Q 1206 3584 1959 3584 
z
" transform="scale(0.015625)"/>
       <path id="DejaVuSans-73" d="M 2834 3397 
L 2834 2853 
Q 2591 2978 2328 3040 
Q 2066 3103 1784 3103 
Q 1356 3103 1142 2972 
Q 928 2841 928 2578 
Q 928 2378 1081 2264 
Q 1234 2150 1697 2047 
L 1894 2003 
Q 2506 1872 2764 1633 
Q 3022 1394 3022 966 
Q 3022 478 2636 193 
Q 2250 -91 1575 -91 
Q 1294 -91 989 -36 
Q 684 19 347 128 
L 347 722 
Q 666 556 975 473 
Q 1284 391 1588 391 
Q 1994 391 2212 530 
Q 2431 669 2431 922 
Q 2431 1156 2273 1281 
Q 2116 1406 1581 1522 
L 1381 1569 
Q 847 1681 609 1914 
Q 372 2147 372 2553 
Q 372 3047 722 3315 
Q 1072 3584 1716 3584 
Q 2034 3584 2315 3537 
Q 2597 3491 2834 3397 
z
" transform="scale(0.015625)"/>
      </defs>
      <use xlink:href="#DejaVuSans-74"/>
      <use xlink:href="#DejaVuSans-72" x="39.208984"/>
      <use xlink:href="#DejaVuSans-61" x="80.322266"/>
      <use xlink:href="#DejaVuSans-69" x="141.601562"/>
      <use xlink:href="#DejaVuSans-6e" x="169.384766"/>
      <use xlink:href="#DejaVuSans-20" x="232.763672"/>
      <use xlink:href="#DejaVuSans-6c" x="264.550781"/>
      <use xlink:href="#DejaVuSans-6f" x="292.333984"/>
      <use xlink:href="#DejaVuSans-73" x="353.515625"/>
      <use xlink:href="#DejaVuSans-73" x="405.615234"/>
     </g>
    </g>
    <g id="line2d_30">
     <path d="M 306.03125 62.336562 
L 316.03125 62.336562 
L 326.03125 62.336562 
" style="fill: none; stroke: #ff7f0e; stroke-width: 1.5; stroke-linecap: square"/>
    </g>
    <g id="text_15">
     <!-- val loss -->
     <g transform="translate(334.03125 65.836562)scale(0.1 -0.1)">
      <defs>
       <path id="DejaVuSans-76" d="M 191 3500 
L 800 3500 
L 1894 563 
L 2988 3500 
L 3597 3500 
L 2284 0 
L 1503 0 
L 191 3500 
z
" transform="scale(0.015625)"/>
      </defs>
      <use xlink:href="#DejaVuSans-76"/>
      <use xlink:href="#DejaVuSans-61" x="59.179688"/>
      <use xlink:href="#DejaVuSans-6c" x="120.458984"/>
      <use xlink:href="#DejaVuSans-20" x="148.242188"/>
      <use xlink:href="#DejaVuSans-6c" x="180.029297"/>
      <use xlink:href="#DejaVuSans-6f" x="207.8125"/>
      <use xlink:href="#DejaVuSans-73" x="268.994141"/>
      <use xlink:href="#DejaVuSans-73" x="321.09375"/>
     </g>
    </g>
   </g>
  </g>
 </g>
 <defs>
  <clipPath id="p66b9deab7d">
   <rect x="54" y="34.56" width="334.8" height="217.44"/>
  </clipPath>
 </defs>
</svg>
