<?xml version="1.0" encoding="utf-8" standalone="no"?>
<!DOCTYPE svg PUBLIC "-//W3C//DTD SVG 1.1//EN"
  "http://www.w3.org/Graphics/SVG/1.1/DTD/svg11.dtd">
<svg xmlns:xlink="http://www.w3.org/1999/xlink" width="432pt" height="288pt" viewBox="0 0 432 288" xmlns="http://www.w3.org/2000/svg" version="1.1">
 <metadata>
  <rdf:RDF xmlns:dc="http://purl.org/dc/elements/1.1/" xmlns:cc="http://creativecommons.org/ns#" xmlns:rdf="http://www.w3.org/1999/02/22-rdf-syntax-ns#">
   <cc:Work>
    <dc:type rdf:resource="http://purl.org/dc/dcmitype/StillImage"/>
    <dc:date>2022-12-16T23:31:05.060767</dc:date>
    <dc:format>image/svg+xml</dc:format>
    <dc:creator>
     <cc:Agent>
      <dc:title>Matplotlib v3.5.0, https://matplotlib.org/</dc:title>
     </cc:Agent>
    </dc:creator>
   </cc:Work>
  </rdf:RDF>
 </metadata>
 <defs>
  <style type="text/css">*{stroke-linejoin: round; stroke-linecap: butt}</style>
 </defs>
 <g id="figure_1">
  <g id="patch_1">
   <path d="M 0 288 
L 432 288 
L 432 0 
L 0 0 
L 0 288 
z
" style="fill: none"/>
  </g>
  <g id="axes_1">
   <g id="patch_2">
    <path d="M 54 252 
L 388.8 252 
L 388.8 34.56 
L 54 34.56 
z
" style="fill: #ffffff"/>
   </g>
   <g id="matplotlib.axis_1">
    <g id="xtick_1">
     <g id="line2d_1">
      <path d="M 69.218182 252 
L 69.218182 34.56 
" clip-path="url(#p7e757ce956)" style="fill: none; stroke: #b0b0b0; stroke-width: 0.8; stroke-linecap: square"/>
     </g>
     <g id="line2d_2">
      <defs>
       <path id="m74e8a82b43" d="M 0 0 
L 0 3.5 
" style="stroke: #000000; stroke-width: 0.8"/>
      </defs>
      <g>
       <use xlink:href="#m74e8a82b43" x="69.218182" y="252" style="stroke: #000000; stroke-width: 0.8"/>
      </g>
     </g>
     <g id="text_1">
      <!-- 0 -->
      <g transform="translate(66.036932 266.598437)scale(0.1 -0.1)">
       <defs>
        <path id="DejaVuSans-30" d="M 2034 4250 
Q 1547 4250 1301 3770 
Q 1056 3291 1056 2328 
Q 1056 1369 1301 889 
Q 1547 409 2034 409 
Q 2525 409 2770 889 
Q 3016 1369 3016 2328 
Q 3016 3291 2770 3770 
Q 2525 4250 2034 4250 
z
M 2034 4750 
Q 2819 4750 3233 4129 
Q 3647 3509 3647 2328 
Q 3647 1150 3233 529 
Q 2819 -91 2034 -91 
Q 1250 -91 836 529 
Q 422 1150 422 2328 
Q 422 3509 836 4129 
Q 1250 4750 2034 4750 
z
" transform="scale(0.015625)"/>
       </defs>
       <use xlink:href="#DejaVuSans-30"/>
      </g>
     </g>
    </g>
    <g id="xtick_2">
     <g id="line2d_3">
      <path d="M 118.467961 252 
L 118.467961 34.56 
" clip-path="url(#p7e757ce956)" style="fill: none; stroke: #b0b0b0; stroke-width: 0.8; stroke-linecap: square"/>
     </g>
     <g id="line2d_4">
      <g>
       <use xlink:href="#m74e8a82b43" x="118.467961" y="252" style="stroke: #000000; stroke-width: 0.8"/>
      </g>
     </g>
     <g id="text_2">
      <!-- 50 -->
      <g transform="translate(112.105461 266.598437)scale(0.1 -0.1)">
       <defs>
        <path id="DejaVuSans-35" d="M 691 4666 
L 3169 4666 
L 3169 4134 
L 1269 4134 
L 1269 2991 
Q 1406 3038 1543 3061 
Q 1681 3084 1819 3084 
Q 2600 3084 3056 2656 
Q 3513 2228 3513 1497 
Q 3513 744 3044 326 
Q 2575 -91 1722 -91 
Q 1428 -91 1123 -41 
Q 819 9 494 109 
L 494 744 
Q 775 591 1075 516 
Q 1375 441 1709 441 
Q 2250 441 2565 725 
Q 2881 1009 2881 1497 
Q 2881 1984 2565 2268 
Q 2250 2553 1709 2553 
Q 1456 2553 1204 2497 
Q 953 2441 691 2322 
L 691 4666 
z
" transform="scale(0.015625)"/>
       </defs>
       <use xlink:href="#DejaVuSans-35"/>
       <use xlink:href="#DejaVuSans-30" x="63.623047"/>
      </g>
     </g>
    </g>
    <g id="xtick_3">
     <g id="line2d_5">
      <path d="M 167.717741 252 
L 167.717741 34.56 
" clip-path="url(#p7e757ce956)" style="fill: none; stroke: #b0b0b0; stroke-width: 0.8; stroke-linecap: square"/>
     </g>
     <g id="line2d_6">
      <g>
       <use xlink:href="#m74e8a82b43" x="167.717741" y="252" style="stroke: #000000; stroke-width: 0.8"/>
      </g>
     </g>
     <g id="text_3">
      <!-- 100 -->
      <g transform="translate(158.173991 266.598437)scale(0.1 -0.1)">
       <defs>
        <path id="DejaVuSans-31" d="M 794 531 
L 1825 531 
L 1825 4091 
L 703 3866 
L 703 4441 
L 1819 4666 
L 2450 4666 
L 2450 531 
L 3481 531 
L 3481 0 
L 794 0 
L 794 531 
z
" transform="scale(0.015625)"/>
       </defs>
       <use xlink:href="#DejaVuSans-31"/>
       <use xlink:href="#DejaVuSans-30" x="63.623047"/>
       <use xlink:href="#DejaVuSans-30" x="127.246094"/>
      </g>
     </g>
    </g>
    <g id="xtick_4">
     <g id="line2d_7">
      <path d="M 216.96752 252 
L 216.96752 34.56 
" clip-path="url(#p7e757ce956)" style="fill: none; stroke: #b0b0b0; stroke-width: 0.8; stroke-linecap: square"/>
     </g>
     <g id="line2d_8">
      <g>
       <use xlink:href="#m74e8a82b43" x="216.96752" y="252" style="stroke: #000000; stroke-width: 0.8"/>
      </g>
     </g>
     <g id="text_4">
      <!-- 150 -->
      <g transform="translate(207.42377 266.598437)scale(0.1 -0.1)">
       <use xlink:href="#DejaVuSans-31"/>
       <use xlink:href="#DejaVuSans-35" x="63.623047"/>
       <use xlink:href="#DejaVuSans-30" x="127.246094"/>
      </g>
     </g>
    </g>
    <g id="xtick_5">
     <g id="line2d_9">
      <path d="M 266.217299 252 
L 266.217299 34.56 
" clip-path="url(#p7e757ce956)" style="fill: none; stroke: #b0b0b0; stroke-width: 0.8; stroke-linecap: square"/>
     </g>
     <g id="line2d_10">
      <g>
       <use xlink:href="#m74e8a82b43" x="266.217299" y="252" style="stroke: #000000; stroke-width: 0.8"/>
      </g>
     </g>
     <g id="text_5">
      <!-- 200 -->
      <g transform="translate(256.673549 266.598437)scale(0.1 -0.1)">
       <defs>
        <path id="DejaVuSans-32" d="M 1228 531 
L 3431 531 
L 3431 0 
L 469 0 
L 469 531 
Q 828 903 1448 1529 
Q 2069 2156 2228 2338 
Q 2531 2678 2651 2914 
Q 2772 3150 2772 3378 
Q 2772 3750 2511 3984 
Q 2250 4219 1831 4219 
Q 1534 4219 1204 4116 
Q 875 4013 500 3803 
L 500 4441 
Q 881 4594 1212 4672 
Q 1544 4750 1819 4750 
Q 2544 4750 2975 4387 
Q 3406 4025 3406 3419 
Q 3406 3131 3298 2873 
Q 3191 2616 2906 2266 
Q 2828 2175 2409 1742 
Q 1991 1309 1228 531 
z
" transform="scale(0.015625)"/>
       </defs>
       <use xlink:href="#DejaVuSans-32"/>
       <use xlink:href="#DejaVuSans-30" x="63.623047"/>
       <use xlink:href="#DejaVuSans-30" x="127.246094"/>
      </g>
     </g>
    </g>
    <g id="xtick_6">
     <g id="line2d_11">
      <path d="M 315.467079 252 
L 315.467079 34.56 
" clip-path="url(#p7e757ce956)" style="fill: none; stroke: #b0b0b0; stroke-width: 0.8; stroke-linecap: square"/>
     </g>
     <g id="line2d_12">
      <g>
       <use xlink:href="#m74e8a82b43" x="315.467079" y="252" style="stroke: #000000; stroke-width: 0.8"/>
      </g>
     </g>
     <g id="text_6">
      <!-- 250 -->
      <g transform="translate(305.923329 266.598437)scale(0.1 -0.1)">
       <use xlink:href="#DejaVuSans-32"/>
       <use xlink:href="#DejaVuSans-35" x="63.623047"/>
       <use xlink:href="#DejaVuSans-30" x="127.246094"/>
      </g>
     </g>
    </g>
    <g id="xtick_7">
     <g id="line2d_13">
      <path d="M 364.716858 252 
L 364.716858 34.56 
" clip-path="url(#p7e757ce956)" style="fill: none; stroke: #b0b0b0; stroke-width: 0.8; stroke-linecap: square"/>
     </g>
     <g id="line2d_14">
      <g>
       <use xlink:href="#m74e8a82b43" x="364.716858" y="252" style="stroke: #000000; stroke-width: 0.8"/>
      </g>
     </g>
     <g id="text_7">
      <!-- 300 -->
      <g transform="translate(355.173108 266.598437)scale(0.1 -0.1)">
       <defs>
        <path id="DejaVuSans-33" d="M 2597 2516 
Q 3050 2419 3304 2112 
Q 3559 1806 3559 1356 
Q 3559 666 3084 287 
Q 2609 -91 1734 -91 
Q 1441 -91 1130 -33 
Q 819 25 488 141 
L 488 750 
Q 750 597 1062 519 
Q 1375 441 1716 441 
Q 2309 441 2620 675 
Q 2931 909 2931 1356 
Q 2931 1769 2642 2001 
Q 2353 2234 1838 2234 
L 1294 2234 
L 1294 2753 
L 1863 2753 
Q 2328 2753 2575 2939 
Q 2822 3125 2822 3475 
Q 2822 3834 2567 4026 
Q 2313 4219 1838 4219 
Q 1578 4219 1281 4162 
Q 984 4106 628 3988 
L 628 4550 
Q 988 4650 1302 4700 
Q 1616 4750 1894 4750 
Q 2613 4750 3031 4423 
Q 3450 4097 3450 3541 
Q 3450 3153 3228 2886 
Q 3006 2619 2597 2516 
z
" transform="scale(0.015625)"/>
       </defs>
       <use xlink:href="#DejaVuSans-33"/>
       <use xlink:href="#DejaVuSans-30" x="63.623047"/>
       <use xlink:href="#DejaVuSans-30" x="127.246094"/>
      </g>
     </g>
    </g>
   </g>
   <g id="matplotlib.axis_2">
    <g id="ytick_1">
     <g id="line2d_15">
      <path d="M 54 219.765382 
L 388.8 219.765382 
" clip-path="url(#p7e757ce956)" style="fill: none; stroke: #b0b0b0; stroke-width: 0.8; stroke-linecap: square"/>
     </g>
     <g id="line2d_16">
      <defs>
       <path id="m125dc3aaee" d="M 0 0 
L -3.5 0 
" style="stroke: #000000; stroke-width: 0.8"/>
      </defs>
      <g>
       <use xlink:href="#m125dc3aaee" x="54" y="219.765382" style="stroke: #000000; stroke-width: 0.8"/>
      </g>
     </g>
     <g id="text_8">
      <!-- 0.5 -->
      <g transform="translate(31.096875 223.564601)scale(0.1 -0.1)">
       <defs>
        <path id="DejaVuSans-2e" d="M 684 794 
L 1344 794 
L 1344 0 
L 684 0 
L 684 794 
z
" transform="scale(0.015625)"/>
       </defs>
       <use xlink:href="#DejaVuSans-30"/>
       <use xlink:href="#DejaVuSans-2e" x="63.623047"/>
       <use xlink:href="#DejaVuSans-35" x="95.410156"/>
      </g>
     </g>
    </g>
    <g id="ytick_2">
     <g id="line2d_17">
      <path d="M 54 181.981671 
L 388.8 181.981671 
" clip-path="url(#p7e757ce956)" style="fill: none; stroke: #b0b0b0; stroke-width: 0.8; stroke-linecap: square"/>
     </g>
     <g id="line2d_18">
      <g>
       <use xlink:href="#m125dc3aaee" x="54" y="181.981671" style="stroke: #000000; stroke-width: 0.8"/>
      </g>
     </g>
     <g id="text_9">
      <!-- 1.0 -->
      <g transform="translate(31.096875 185.78089)scale(0.1 -0.1)">
       <use xlink:href="#DejaVuSans-31"/>
       <use xlink:href="#DejaVuSans-2e" x="63.623047"/>
       <use xlink:href="#DejaVuSans-30" x="95.410156"/>
      </g>
     </g>
    </g>
    <g id="ytick_3">
     <g id="line2d_19">
      <path d="M 54 144.19796 
L 388.8 144.19796 
" clip-path="url(#p7e757ce956)" style="fill: none; stroke: #b0b0b0; stroke-width: 0.8; stroke-linecap: square"/>
     </g>
     <g id="line2d_20">
      <g>
       <use xlink:href="#m125dc3aaee" x="54" y="144.19796" style="stroke: #000000; stroke-width: 0.8"/>
      </g>
     </g>
     <g id="text_10">
      <!-- 1.5 -->
      <g transform="translate(31.096875 147.997179)scale(0.1 -0.1)">
       <use xlink:href="#DejaVuSans-31"/>
       <use xlink:href="#DejaVuSans-2e" x="63.623047"/>
       <use xlink:href="#DejaVuSans-35" x="95.410156"/>
      </g>
     </g>
    </g>
    <g id="ytick_4">
     <g id="line2d_21">
      <path d="M 54 106.414249 
L 388.8 106.414249 
" clip-path="url(#p7e757ce956)" style="fill: none; stroke: #b0b0b0; stroke-width: 0.8; stroke-linecap: square"/>
     </g>
     <g id="line2d_22">
      <g>
       <use xlink:href="#m125dc3aaee" x="54" y="106.414249" style="stroke: #000000; stroke-width: 0.8"/>
      </g>
     </g>
     <g id="text_11">
      <!-- 2.0 -->
      <g transform="translate(31.096875 110.213467)scale(0.1 -0.1)">
       <use xlink:href="#DejaVuSans-32"/>
       <use xlink:href="#DejaVuSans-2e" x="63.623047"/>
       <use xlink:href="#DejaVuSans-30" x="95.410156"/>
      </g>
     </g>
    </g>
    <g id="ytick_5">
     <g id="line2d_23">
      <path d="M 54 68.630537 
L 388.8 68.630537 
" clip-path="url(#p7e757ce956)" style="fill: none; stroke: #b0b0b0; stroke-width: 0.8; stroke-linecap: square"/>
     </g>
     <g id="line2d_24">
      <g>
       <use xlink:href="#m125dc3aaee" x="54" y="68.630537" style="stroke: #000000; stroke-width: 0.8"/>
      </g>
     </g>
     <g id="text_12">
      <!-- 2.5 -->
      <g transform="translate(31.096875 72.429756)scale(0.1 -0.1)">
       <use xlink:href="#DejaVuSans-32"/>
       <use xlink:href="#DejaVuSans-2e" x="63.623047"/>
       <use xlink:href="#DejaVuSans-35" x="95.410156"/>
      </g>
     </g>
    </g>
   </g>
   <g id="line2d_25">
    <path d="M 69.218182 44.443636 
L 70.203177 60.153038 
L 71.188173 89.78595 
L 72.173169 114.141753 
L 73.158164 124.793962 
L 74.14316 133.993413 
L 76.113151 143.142732 
L 77.098147 147.438957 
L 78.083142 158.635373 
L 79.068138 162.89102 
L 80.053133 159.838089 
L 81.038129 170.087473 
L 82.023124 160.780934 
L 83.00812 171.71202 
L 83.993116 167.468549 
L 84.978111 170.885153 
L 86.948102 174.188852 
L 87.933098 179.433719 
L 88.918094 176.675788 
L 89.903089 175.206196 
L 90.888085 176.564996 
L 91.87308 182.695733 
L 92.858076 182.625592 
L 93.843071 180.268782 
L 94.828067 177.330991 
L 95.813063 182.012018 
L 96.798058 178.347334 
L 97.783054 175.22792 
L 98.768049 183.600309 
L 99.753045 179.232106 
L 100.738041 183.783062 
L 101.723036 181.61657 
L 102.708032 186.568432 
L 103.693027 181.93309 
L 104.678023 187.543409 
L 105.663019 182.148547 
L 106.648014 184.527397 
L 107.63301 185.042187 
L 108.618005 187.484261 
L 109.603001 188.100544 
L 110.587996 187.653664 
L 111.572992 193.020902 
L 112.557988 188.65013 
L 113.542983 191.586787 
L 114.527979 188.0272 
L 115.512974 191.292872 
L 116.49797 188.78541 
L 117.482966 185.148043 
L 118.467961 188.904718 
L 119.452957 189.686702 
L 120.437952 193.013097 
L 121.422948 193.922255 
L 122.407944 191.651809 
L 123.392939 192.306206 
L 124.377935 178.621843 
L 125.36293 191.319113 
L 126.347926 195.57254 
L 128.317917 175.547572 
L 129.302913 194.309002 
L 130.287908 191.059409 
L 131.272904 192.25278 
L 132.257899 190.844941 
L 133.242895 190.810394 
L 134.227891 191.181782 
L 135.212886 196.082542 
L 136.197882 191.481014 
L 137.182877 193.075526 
L 138.167873 195.857613 
L 139.152868 181.955361 
L 140.137864 192.353781 
L 141.12286 194.12814 
L 142.107855 191.701824 
L 143.092851 191.950386 
L 144.077846 193.268282 
L 145.062842 196.145883 
L 146.047838 196.01593 
L 147.032833 197.492337 
L 148.017829 192.93985 
L 149.002824 194.518843 
L 150.972816 190.715927 
L 151.957811 193.672669 
L 152.942807 193.547945 
L 153.927802 195.236107 
L 155.897793 191.454536 
L 156.882789 195.376782 
L 157.867785 195.678204 
L 158.85278 193.256418 
L 159.837776 196.349123 
L 160.822771 197.601365 
L 161.807767 191.847616 
L 162.792763 195.795025 
L 164.762754 195.458178 
L 165.747749 196.163417 
L 166.732745 195.828429 
L 167.717741 194.64841 
L 168.702736 196.355795 
L 169.687732 194.461558 
L 170.672727 191.341502 
L 171.657723 191.88338 
L 172.642718 195.819765 
L 173.627714 192.654513 
L 174.61271 196.318063 
L 175.597705 195.272911 
L 176.582701 191.793081 
L 177.567696 196.267521 
L 178.552692 196.495091 
L 179.537688 193.285032 
L 180.522683 196.7201 
L 181.507679 195.966604 
L 182.492674 198.766824 
L 183.47767 192.242059 
L 184.462665 193.174993 
L 185.447661 193.744694 
L 186.432657 195.182481 
L 187.417652 193.159775 
L 188.402648 197.109792 
L 189.387643 198.261503 
L 190.372639 196.437029 
L 191.357635 193.498182 
L 192.34263 195.546624 
L 193.327626 195.371047 
L 194.312621 198.225527 
L 195.297617 195.748265 
L 196.282613 197.161581 
L 197.267608 199.008693 
L 198.252604 197.062994 
L 199.237599 197.315607 
L 200.222595 195.028619 
L 201.20759 193.53001 
L 202.192586 198.030861 
L 203.177582 197.374762 
L 204.162577 196.025183 
L 205.147573 196.978042 
L 206.132568 195.790535 
L 207.117564 198.48822 
L 208.10256 196.024373 
L 209.087555 196.717794 
L 210.072551 196.929599 
L 211.057546 198.700704 
L 212.042542 194.661175 
L 213.027538 196.543516 
L 214.012533 197.795738 
L 214.997529 194.692216 
L 215.982524 198.587902 
L 216.96752 194.810029 
L 217.952515 198.239127 
L 218.937511 197.770385 
L 219.922507 194.51345 
L 220.907502 197.358707 
L 221.892498 197.261279 
L 222.877493 200.048835 
L 223.862489 178.409244 
L 224.847485 197.494778 
L 225.83248 182.330294 
L 226.817476 199.878352 
L 227.802471 196.899366 
L 228.787467 200.246929 
L 229.772462 198.229357 
L 230.757458 197.68695 
L 231.742454 199.019622 
L 232.727449 197.31078 
L 233.712445 198.105431 
L 234.69744 198.565795 
L 235.682436 196.632402 
L 236.667432 200.144683 
L 237.652427 197.294503 
L 238.637423 195.313065 
L 239.622418 194.088959 
L 240.607414 195.680621 
L 241.59241 199.076758 
L 242.577405 198.908442 
L 243.562401 199.028317 
L 244.547396 195.094151 
L 245.532392 199.12358 
L 246.517387 199.990207 
L 247.502383 197.266314 
L 248.487379 181.154489 
L 249.472374 198.046626 
L 250.45737 200.269072 
L 251.442365 193.23738 
L 252.427361 197.139109 
L 253.412357 197.382159 
L 254.397352 197.280511 
L 255.382348 199.257567 
L 256.367343 199.689681 
L 257.352339 198.854613 
L 258.337335 198.938551 
L 259.32233 197.259815 
L 260.307326 200.29065 
L 261.292321 200.36933 
L 262.277317 198.617521 
L 263.262312 199.219152 
L 264.247308 196.607411 
L 265.232304 199.035704 
L 266.217299 197.366611 
L 268.18729 199.45069 
L 270.157282 198.083263 
L 271.142277 198.26077 
L 272.127273 198.73025 
L 273.112268 201.602346 
L 274.097264 196.160714 
L 275.082259 198.72635 
L 276.067255 198.908869 
L 277.052251 200.914064 
L 278.037246 199.825157 
L 279.022242 197.92905 
L 280.007237 199.568348 
L 280.992233 188.126291 
L 281.977229 198.721734 
L 282.962224 199.72453 
L 283.94722 199.465993 
L 284.932215 199.88861 
L 285.917211 199.465319 
L 286.902207 195.491171 
L 287.887202 200.68493 
L 288.872198 194.984837 
L 289.857193 197.708204 
L 290.842189 198.554321 
L 291.827184 200.237969 
L 292.81218 200.680571 
L 293.797176 200.389896 
L 295.767167 197.369674 
L 296.752162 200.816122 
L 297.737158 199.441503 
L 298.722154 200.56956 
L 299.707149 200.733368 
L 300.692145 200.04617 
L 301.67714 200.458737 
L 302.662136 198.267717 
L 303.647132 201.895759 
L 304.632127 202.94626 
L 305.617123 200.130083 
L 306.602118 200.678906 
L 307.587114 199.908572 
L 308.572109 199.402543 
L 309.557105 201.073992 
L 310.542101 201.471446 
L 311.527096 200.823552 
L 313.497087 198.764471 
L 314.482083 201.169121 
L 315.467079 184.866496 
L 316.452074 201.865555 
L 317.43707 199.858915 
L 318.422065 201.53569 
L 319.407061 201.585978 
L 320.392056 200.090997 
L 321.377052 197.490114 
L 322.362048 197.399976 
L 323.347043 201.535017 
L 324.332039 199.709454 
L 325.317034 198.913208 
L 326.30203 198.619207 
L 327.287026 199.295907 
L 328.272021 199.622478 
L 329.257017 199.032145 
L 330.242012 200.160899 
L 331.227008 200.564096 
L 332.212004 201.270899 
L 333.196999 200.933202 
L 334.181995 200.826742 
L 336.151986 198.978528 
L 337.136981 201.450179 
L 338.121977 202.658977 
L 339.106973 203.339262 
L 340.091968 201.904158 
L 341.076964 196.302075 
L 342.061959 202.151216 
L 343.046955 199.816724 
L 344.031951 199.621174 
L 345.016946 201.958946 
L 346.001942 199.832889 
L 346.986937 200.343277 
L 347.971933 201.492744 
L 348.956929 202.017922 
L 349.941924 203.336328 
L 350.92692 203.76287 
L 351.911915 201.670033 
L 352.896911 200.110341 
L 353.881906 200.10818 
L 354.866902 201.403463 
L 355.851898 203.633632 
L 356.836893 202.25461 
L 357.821889 200.514157 
L 358.806884 200.019276 
L 359.79188 201.892405 
L 360.776876 202.635439 
L 361.761871 201.655418 
L 362.746867 201.08524 
L 363.731862 202.544743 
L 364.716858 201.869226 
L 365.701853 200.522307 
L 366.686849 201.29845 
L 367.671845 198.960332 
L 368.65684 199.567549 
L 369.641836 197.721924 
L 370.626831 199.969526 
L 371.611827 201.653346 
L 372.596823 202.06055 
L 373.581818 201.835685 
L 373.581818 201.835685 
" clip-path="url(#p7e757ce956)" style="fill: none; stroke: #1f77b4; stroke-width: 1.5; stroke-linecap: square"/>
   </g>
   <g id="line2d_26">
    <path d="M 69.218182 219.616077 
L 70.203177 219.492503 
L 71.188173 214.319389 
L 72.173169 218.096675 
L 73.158164 223.934264 
L 74.14316 227.43556 
L 75.128155 228.218214 
L 76.113151 229.501094 
L 77.098147 229.913834 
L 78.083142 230.649602 
L 79.068138 230.885027 
L 81.038129 232.813246 
L 82.023124 233.057555 
L 83.00812 234.621046 
L 84.978111 235.268751 
L 85.963107 234.25766 
L 86.948102 234.490473 
L 87.933098 234.353695 
L 88.918094 234.838075 
L 89.903089 235.128035 
L 90.888085 235.640204 
L 93.843071 236.119423 
L 94.828067 236.612384 
L 95.813063 236.091799 
L 96.798058 236.624904 
L 97.783054 237.388307 
L 98.768049 236.655548 
L 99.753045 236.495087 
L 100.738041 237.567392 
L 101.723036 237.253329 
L 102.708032 237.451401 
L 104.678023 237.414483 
L 105.663019 237.91086 
L 106.648014 238.011533 
L 107.63301 237.978581 
L 108.618005 237.742971 
L 109.603001 238.300882 
L 110.587996 238.621423 
L 111.572992 238.645913 
L 112.557988 238.297385 
L 114.527979 238.937481 
L 115.512974 238.804941 
L 116.49797 239.020976 
L 117.482966 238.916196 
L 118.467961 239.40561 
L 119.452957 239.50513 
L 120.437952 239.214078 
L 121.422948 239.728227 
L 123.392939 239.179314 
L 124.377935 239.277351 
L 125.36293 238.923904 
L 126.347926 239.277739 
L 127.332921 239.120497 
L 129.302913 239.945202 
L 130.287908 239.60013 
L 131.272904 239.434778 
L 132.257899 239.581057 
L 133.242895 239.919262 
L 134.227891 239.834356 
L 135.212886 240.125116 
L 136.197882 239.736182 
L 137.182877 239.891982 
L 138.167873 239.785935 
L 139.152868 239.832866 
L 140.137864 240.039264 
L 141.12286 239.985858 
L 142.107855 239.711406 
L 143.092851 239.77366 
L 144.077846 239.698943 
L 145.062842 240.154022 
L 146.047838 240.402911 
L 147.032833 240.00905 
L 149.002824 240.538692 
L 149.98782 240.154585 
L 150.972816 240.032335 
L 151.957811 240.124958 
L 152.942807 240.653259 
L 154.912798 240.284111 
L 155.897793 240.283828 
L 156.882789 240.651645 
L 157.867785 240.091273 
L 159.837776 240.555954 
L 160.822771 240.413545 
L 161.807767 240.603276 
L 162.792763 240.585663 
L 163.777758 240.404857 
L 166.732745 240.373592 
L 167.717741 240.220878 
L 168.702736 240.359241 
L 169.687732 240.637319 
L 170.672727 240.56709 
L 171.657723 240.352021 
L 172.642718 240.737827 
L 173.627714 240.673888 
L 175.597705 240.1673 
L 177.567696 240.516178 
L 178.552692 240.498259 
L 181.507679 240.909919 
L 182.492674 240.815246 
L 183.47767 241.072829 
L 184.462665 241.076955 
L 187.417652 240.41741 
L 188.402648 240.903819 
L 189.387643 240.77006 
L 190.372639 241.13308 
L 191.357635 240.946196 
L 192.34263 241.072619 
L 194.312621 240.815593 
L 195.297617 241.083079 
L 196.282613 240.788221 
L 197.267608 240.94273 
L 198.252604 240.57827 
L 199.237599 240.822253 
L 200.222595 241.28369 
L 201.20759 241.103 
L 202.192586 241.391281 
L 203.177582 241.077001 
L 204.162577 241.37569 
L 205.147573 240.525956 
L 206.132568 241.334872 
L 207.117564 241.347324 
L 208.10256 240.803477 
L 209.087555 240.737285 
L 210.072551 241.093129 
L 212.042542 241.264316 
L 213.027538 240.715089 
L 214.997529 241.045499 
L 216.96752 241.007225 
L 218.937511 241.386286 
L 220.907502 241.231969 
L 221.892498 240.871231 
L 222.877493 240.947491 
L 223.862489 241.264765 
L 224.847485 241.157505 
L 225.83248 241.28471 
L 226.817476 241.134265 
L 228.787467 241.207843 
L 229.772462 241.255017 
L 230.757458 240.882446 
L 232.727449 241.184652 
L 233.712445 241.411949 
L 234.69744 241.020588 
L 235.682436 241.519221 
L 236.667432 241.161659 
L 239.622418 241.266704 
L 240.607414 241.103833 
L 243.562401 241.401608 
L 244.547396 241.184804 
L 245.532392 241.286054 
L 246.517387 240.860052 
L 247.502383 241.246204 
L 249.472374 241.506232 
L 251.442365 240.694128 
L 252.427361 241.216746 
L 253.412357 240.901977 
L 254.397352 241.337909 
L 255.382348 241.454723 
L 256.367343 240.877722 
L 257.352339 241.223716 
L 258.337335 241.38215 
L 259.32233 241.144436 
L 260.307326 241.520446 
L 261.292321 241.717485 
L 262.277317 241.335757 
L 263.262312 241.481385 
L 264.247308 241.259307 
L 265.232304 241.392718 
L 267.202295 241.338234 
L 269.172286 240.935165 
L 270.157282 241.493772 
L 273.112268 241.552373 
L 274.097264 241.3095 
L 275.082259 241.410749 
L 278.037246 241.361795 
L 279.022242 241.420999 
L 280.007237 241.310106 
L 280.992233 241.440129 
L 281.977229 241.311463 
L 282.962224 241.402381 
L 283.94722 241.301456 
L 284.932215 241.400433 
L 285.917211 241.687646 
L 286.902207 241.370808 
L 287.887202 241.680953 
L 288.872198 241.189922 
L 289.857193 241.899168 
L 290.842189 241.626134 
L 291.827184 241.576017 
L 292.81218 241.98891 
L 294.782171 241.512549 
L 295.767167 241.503972 
L 297.737158 241.817746 
L 298.722154 241.377864 
L 299.707149 241.793511 
L 300.692145 241.256782 
L 302.662136 241.840892 
L 303.647132 241.407887 
L 304.632127 241.481726 
L 305.617123 241.362526 
L 306.602118 241.777012 
L 307.587114 241.533097 
L 308.572109 241.461913 
L 309.557105 241.554051 
L 311.527096 241.416392 
L 312.512092 241.644709 
L 313.497087 241.477119 
L 314.482083 241.537825 
L 315.467079 241.793912 
L 317.43707 241.732621 
L 318.422065 241.977384 
L 319.407061 241.754259 
L 320.392056 241.951447 
L 322.362048 241.862811 
L 323.347043 241.41869 
L 324.332039 241.441486 
L 325.317034 241.8159 
L 326.30203 241.955261 
L 328.272021 241.662365 
L 329.257017 241.850323 
L 330.242012 241.845013 
L 331.227008 241.504628 
L 332.212004 241.694358 
L 333.196999 241.666677 
L 335.16699 241.788227 
L 336.151986 241.567848 
L 337.136981 242.060758 
L 339.106973 242.065518 
L 340.091968 241.35417 
L 341.076964 241.808448 
L 343.046955 241.865823 
L 344.031951 241.548685 
L 345.016946 241.746983 
L 346.001942 241.654976 
L 346.986937 241.838355 
L 351.911915 242.016118 
L 352.896911 241.646611 
L 353.881906 241.997777 
L 356.836893 241.776461 
L 357.821889 241.990843 
L 358.806884 242.025997 
L 359.79188 241.783949 
L 362.746867 241.720038 
L 363.731862 241.826119 
L 364.716858 241.801939 
L 365.701853 241.973839 
L 368.65684 241.764696 
L 369.641836 241.922314 
L 370.626831 241.549064 
L 371.611827 241.585446 
L 372.596823 241.424909 
L 373.581818 241.586576 
L 373.581818 241.586576 
" clip-path="url(#p7e757ce956)" style="fill: none; stroke: #ff7f0e; stroke-width: 1.5; stroke-linecap: square"/>
   </g>
   <g id="patch_3">
    <path d="M 54 252 
L 54 34.56 
" style="fill: none; stroke: #000000; stroke-width: 0.8; stroke-linejoin: miter; stroke-linecap: square"/>
   </g>
   <g id="patch_4">
    <path d="M 388.8 252 
L 388.8 34.56 
" style="fill: none; stroke: #000000; stroke-width: 0.8; stroke-linejoin: miter; stroke-linecap: square"/>
   </g>
   <g id="patch_5">
    <path d="M 54 252 
L 388.8 252 
" style="fill: none; stroke: #000000; stroke-width: 0.8; stroke-linejoin: miter; stroke-linecap: square"/>
   </g>
   <g id="patch_6">
    <path d="M 54 34.56 
L 388.8 34.56 
" style="fill: none; stroke: #000000; stroke-width: 0.8; stroke-linejoin: miter; stroke-linecap: square"/>
   </g>
   <g id="legend_1">
    <g id="patch_7">
     <path d="M 304.03125 71.91625 
L 381.8 71.91625 
Q 383.8 71.91625 383.8 69.91625 
L 383.8 41.56 
Q 383.8 39.56 381.8 39.56 
L 304.03125 39.56 
Q 302.03125 39.56 302.03125 41.56 
L 302.03125 69.91625 
Q 302.03125 71.91625 304.03125 71.91625 
z
" style="fill: #ffffff; opacity: 0.8; stroke: #cccccc; stroke-linejoin: miter"/>
    </g>
    <g id="line2d_27">
     <path d="M 306.03125 47.658437 
L 316.03125 47.658437 
L 326.03125 47.658437 
" style="fill: none; stroke: #1f77b4; stroke-width: 1.5; stroke-linecap: square"/>
    </g>
    <g id="text_13">
     <!-- train loss -->
     <g transform="translate(334.03125 51.158437)scale(0.1 -0.1)">
      <defs>
       <path id="DejaVuSans-74" d="M 1172 4494 
L 1172 3500 
L 2356 3500 
L 2356 3053 
L 1172 3053 
L 1172 1153 
Q 1172 725 1289 603 
Q 1406 481 1766 481 
L 2356 481 
L 2356 0 
L 1766 0 
Q 1100 0 847 248 
Q 594 497 594 1153 
L 594 3053 
L 172 3053 
L 172 3500 
L 594 3500 
L 594 4494 
L 1172 4494 
z
" transform="scale(0.015625)"/>
       <path id="DejaVuSans-72" d="M 2631 2963 
Q 2534 3019 2420 3045 
Q 2306 3072 2169 3072 
Q 1681 3072 1420 2755 
Q 1159 2438 1159 1844 
L 1159 0 
L 581 0 
L 581 3500 
L 1159 3500 
L 1159 2956 
Q 1341 3275 1631 3429 
Q 1922 3584 2338 3584 
Q 2397 3584 2469 3576 
Q 2541 3569 2628 3553 
L 2631 2963 
z
" transform="scale(0.015625)"/>
       <path id="DejaVuSans-61" d="M 2194 1759 
Q 1497 1759 1228 1600 
Q 959 1441 959 1056 
Q 959 750 1161 570 
Q 1363 391 1709 391 
Q 2188 391 2477 730 
Q 2766 1069 2766 1631 
L 2766 1759 
L 2194 1759 
z
M 3341 1997 
L 3341 0 
L 2766 0 
L 2766 531 
Q 2569 213 2275 61 
Q 1981 -91 1556 -91 
Q 1019 -91 701 211 
Q 384 513 384 1019 
Q 384 1609 779 1909 
Q 1175 2209 1959 2209 
L 2766 2209 
L 2766 2266 
Q 2766 2663 2505 2880 
Q 2244 3097 1772 3097 
Q 1472 3097 1187 3025 
Q 903 2953 641 2809 
L 641 3341 
Q 956 3463 1253 3523 
Q 1550 3584 1831 3584 
Q 2591 3584 2966 3190 
Q 3341 2797 3341 1997 
z
" transform="scale(0.015625)"/>
       <path id="DejaVuSans-69" d="M 603 3500 
L 1178 3500 
L 1178 0 
L 603 0 
L 603 3500 
z
M 603 4863 
L 1178 4863 
L 1178 4134 
L 603 4134 
L 603 4863 
z
" transform="scale(0.015625)"/>
       <path id="DejaVuSans-6e" d="M 3513 2113 
L 3513 0 
L 2938 0 
L 2938 2094 
Q 2938 2591 2744 2837 
Q 2550 3084 2163 3084 
Q 1697 3084 1428 2787 
Q 1159 2491 1159 1978 
L 1159 0 
L 581 0 
L 581 3500 
L 1159 3500 
L 1159 2956 
Q 1366 3272 1645 3428 
Q 1925 3584 2291 3584 
Q 2894 3584 3203 3211 
Q 3513 2838 3513 2113 
z
" transform="scale(0.015625)"/>
       <path id="DejaVuSans-20" transform="scale(0.015625)"/>
       <path id="DejaVuSans-6c" d="M 603 4863 
L 1178 4863 
L 1178 0 
L 603 0 
L 603 4863 
z
" transform="scale(0.015625)"/>
       <path id="DejaVuSans-6f" d="M 1959 3097 
Q 1497 3097 1228 2736 
Q 959 2375 959 1747 
Q 959 1119 1226 758 
Q 1494 397 1959 397 
Q 2419 397 2687 759 
Q 2956 1122 2956 1747 
Q 2956 2369 2687 2733 
Q 2419 3097 1959 3097 
z
M 1959 3584 
Q 2709 3584 3137 3096 
Q 3566 2609 3566 1747 
Q 3566 888 3137 398 
Q 2709 -91 1959 -91 
Q 1206 -91 779 398 
Q 353 888 353 1747 
Q 353 2609 779 3096 
Q 1206 3584 1959 3584 
z
" transform="scale(0.015625)"/>
       <path id="DejaVuSans-73" d="M 2834 3397 
L 2834 2853 
Q 2591 2978 2328 3040 
Q 2066 3103 1784 3103 
Q 1356 3103 1142 2972 
Q 928 2841 928 2578 
Q 928 2378 1081 2264 
Q 1234 2150 1697 2047 
L 1894 2003 
Q 2506 1872 2764 1633 
Q 3022 1394 3022 966 
Q 3022 478 2636 193 
Q 2250 -91 1575 -91 
Q 1294 -91 989 -36 
Q 684 19 347 128 
L 347 722 
Q 666 556 975 473 
Q 1284 391 1588 391 
Q 1994 391 2212 530 
Q 2431 669 2431 922 
Q 2431 1156 2273 1281 
Q 2116 1406 1581 1522 
L 1381 1569 
Q 847 1681 609 1914 
Q 372 2147 372 2553 
Q 372 3047 722 3315 
Q 1072 3584 1716 3584 
Q 2034 3584 2315 3537 
Q 2597 3491 2834 3397 
z
" transform="scale(0.015625)"/>
      </defs>
      <use xlink:href="#DejaVuSans-74"/>
      <use xlink:href="#DejaVuSans-72" x="39.208984"/>
      <use xlink:href="#DejaVuSans-61" x="80.322266"/>
      <use xlink:href="#DejaVuSans-69" x="141.601562"/>
      <use xlink:href="#DejaVuSans-6e" x="169.384766"/>
      <use xlink:href="#DejaVuSans-20" x="232.763672"/>
      <use xlink:href="#DejaVuSans-6c" x="264.550781"/>
      <use xlink:href="#DejaVuSans-6f" x="292.333984"/>
      <use xlink:href="#DejaVuSans-73" x="353.515625"/>
      <use xlink:href="#DejaVuSans-73" x="405.615234"/>
     </g>
    </g>
    <g id="line2d_28">
     <path d="M 306.03125 62.336562 
L 316.03125 62.336562 
L 326.03125 62.336562 
" style="fill: none; stroke: #ff7f0e; stroke-width: 1.5; stroke-linecap: square"/>
    </g>
    <g id="text_14">
     <!-- val loss -->
     <g transform="translate(334.03125 65.836562)scale(0.1 -0.1)">
      <defs>
       <path id="DejaVuSans-76" d="M 191 3500 
L 800 3500 
L 1894 563 
L 2988 3500 
L 3597 3500 
L 2284 0 
L 1503 0 
L 191 3500 
z
" transform="scale(0.015625)"/>
      </defs>
      <use xlink:href="#DejaVuSans-76"/>
      <use xlink:href="#DejaVuSans-61" x="59.179688"/>
      <use xlink:href="#DejaVuSans-6c" x="120.458984"/>
      <use xlink:href="#DejaVuSans-20" x="148.242188"/>
      <use xlink:href="#DejaVuSans-6c" x="180.029297"/>
      <use xlink:href="#DejaVuSans-6f" x="207.8125"/>
      <use xlink:href="#DejaVuSans-73" x="268.994141"/>
      <use xlink:href="#DejaVuSans-73" x="321.09375"/>
     </g>
    </g>
   </g>
  </g>
 </g>
 <defs>
  <clipPath id="p7e757ce956">
   <rect x="54" y="34.56" width="334.8" height="217.44"/>
  </clipPath>
 </defs>
</svg>
