<?xml version="1.0" encoding="utf-8" standalone="no"?>
<!DOCTYPE svg PUBLIC "-//W3C//DTD SVG 1.1//EN"
  "http://www.w3.org/Graphics/SVG/1.1/DTD/svg11.dtd">
<svg xmlns:xlink="http://www.w3.org/1999/xlink" width="432pt" height="288pt" viewBox="0 0 432 288" xmlns="http://www.w3.org/2000/svg" version="1.1">
 <metadata>
  <rdf:RDF xmlns:dc="http://purl.org/dc/elements/1.1/" xmlns:cc="http://creativecommons.org/ns#" xmlns:rdf="http://www.w3.org/1999/02/22-rdf-syntax-ns#">
   <cc:Work>
    <dc:type rdf:resource="http://purl.org/dc/dcmitype/StillImage"/>
    <dc:date>2022-12-15T23:42:11.557914</dc:date>
    <dc:format>image/svg+xml</dc:format>
    <dc:creator>
     <cc:Agent>
      <dc:title>Matplotlib v3.5.0, https://matplotlib.org/</dc:title>
     </cc:Agent>
    </dc:creator>
   </cc:Work>
  </rdf:RDF>
 </metadata>
 <defs>
  <style type="text/css">*{stroke-linejoin: round; stroke-linecap: butt}</style>
 </defs>
 <g id="figure_1">
  <g id="patch_1">
   <path d="M 0 288 
L 432 288 
L 432 0 
L 0 0 
L 0 288 
z
" style="fill: none"/>
  </g>
  <g id="axes_1">
   <g id="patch_2">
    <path d="M 54 252 
L 388.8 252 
L 388.8 34.56 
L 54 34.56 
z
" style="fill: #ffffff"/>
   </g>
   <g id="matplotlib.axis_1">
    <g id="xtick_1">
     <g id="line2d_1">
      <path d="M 69.218182 252 
L 69.218182 34.56 
" clip-path="url(#p3afb8a1967)" style="fill: none; stroke: #b0b0b0; stroke-width: 0.8; stroke-linecap: square"/>
     </g>
     <g id="line2d_2">
      <defs>
       <path id="m6964ed5f80" d="M 0 0 
L 0 3.5 
" style="stroke: #000000; stroke-width: 0.8"/>
      </defs>
      <g>
       <use xlink:href="#m6964ed5f80" x="69.218182" y="252" style="stroke: #000000; stroke-width: 0.8"/>
      </g>
     </g>
     <g id="text_1">
      <!-- 0 -->
      <g transform="translate(66.036932 266.598437)scale(0.1 -0.1)">
       <defs>
        <path id="DejaVuSans-30" d="M 2034 4250 
Q 1547 4250 1301 3770 
Q 1056 3291 1056 2328 
Q 1056 1369 1301 889 
Q 1547 409 2034 409 
Q 2525 409 2770 889 
Q 3016 1369 3016 2328 
Q 3016 3291 2770 3770 
Q 2525 4250 2034 4250 
z
M 2034 4750 
Q 2819 4750 3233 4129 
Q 3647 3509 3647 2328 
Q 3647 1150 3233 529 
Q 2819 -91 2034 -91 
Q 1250 -91 836 529 
Q 422 1150 422 2328 
Q 422 3509 836 4129 
Q 1250 4750 2034 4750 
z
" transform="scale(0.015625)"/>
       </defs>
       <use xlink:href="#DejaVuSans-30"/>
      </g>
     </g>
    </g>
    <g id="xtick_2">
     <g id="line2d_3">
      <path d="M 109.371696 252 
L 109.371696 34.56 
" clip-path="url(#p3afb8a1967)" style="fill: none; stroke: #b0b0b0; stroke-width: 0.8; stroke-linecap: square"/>
     </g>
     <g id="line2d_4">
      <g>
       <use xlink:href="#m6964ed5f80" x="109.371696" y="252" style="stroke: #000000; stroke-width: 0.8"/>
      </g>
     </g>
     <g id="text_2">
      <!-- 50 -->
      <g transform="translate(103.009196 266.598437)scale(0.1 -0.1)">
       <defs>
        <path id="DejaVuSans-35" d="M 691 4666 
L 3169 4666 
L 3169 4134 
L 1269 4134 
L 1269 2991 
Q 1406 3038 1543 3061 
Q 1681 3084 1819 3084 
Q 2600 3084 3056 2656 
Q 3513 2228 3513 1497 
Q 3513 744 3044 326 
Q 2575 -91 1722 -91 
Q 1428 -91 1123 -41 
Q 819 9 494 109 
L 494 744 
Q 775 591 1075 516 
Q 1375 441 1709 441 
Q 2250 441 2565 725 
Q 2881 1009 2881 1497 
Q 2881 1984 2565 2268 
Q 2250 2553 1709 2553 
Q 1456 2553 1204 2497 
Q 953 2441 691 2322 
L 691 4666 
z
" transform="scale(0.015625)"/>
       </defs>
       <use xlink:href="#DejaVuSans-35"/>
       <use xlink:href="#DejaVuSans-30" x="63.623047"/>
      </g>
     </g>
    </g>
    <g id="xtick_3">
     <g id="line2d_5">
      <path d="M 149.52521 252 
L 149.52521 34.56 
" clip-path="url(#p3afb8a1967)" style="fill: none; stroke: #b0b0b0; stroke-width: 0.8; stroke-linecap: square"/>
     </g>
     <g id="line2d_6">
      <g>
       <use xlink:href="#m6964ed5f80" x="149.52521" y="252" style="stroke: #000000; stroke-width: 0.8"/>
      </g>
     </g>
     <g id="text_3">
      <!-- 100 -->
      <g transform="translate(139.98146 266.598437)scale(0.1 -0.1)">
       <defs>
        <path id="DejaVuSans-31" d="M 794 531 
L 1825 531 
L 1825 4091 
L 703 3866 
L 703 4441 
L 1819 4666 
L 2450 4666 
L 2450 531 
L 3481 531 
L 3481 0 
L 794 0 
L 794 531 
z
" transform="scale(0.015625)"/>
       </defs>
       <use xlink:href="#DejaVuSans-31"/>
       <use xlink:href="#DejaVuSans-30" x="63.623047"/>
       <use xlink:href="#DejaVuSans-30" x="127.246094"/>
      </g>
     </g>
    </g>
    <g id="xtick_4">
     <g id="line2d_7">
      <path d="M 189.678724 252 
L 189.678724 34.56 
" clip-path="url(#p3afb8a1967)" style="fill: none; stroke: #b0b0b0; stroke-width: 0.8; stroke-linecap: square"/>
     </g>
     <g id="line2d_8">
      <g>
       <use xlink:href="#m6964ed5f80" x="189.678724" y="252" style="stroke: #000000; stroke-width: 0.8"/>
      </g>
     </g>
     <g id="text_4">
      <!-- 150 -->
      <g transform="translate(180.134974 266.598437)scale(0.1 -0.1)">
       <use xlink:href="#DejaVuSans-31"/>
       <use xlink:href="#DejaVuSans-35" x="63.623047"/>
       <use xlink:href="#DejaVuSans-30" x="127.246094"/>
      </g>
     </g>
    </g>
    <g id="xtick_5">
     <g id="line2d_9">
      <path d="M 229.832238 252 
L 229.832238 34.56 
" clip-path="url(#p3afb8a1967)" style="fill: none; stroke: #b0b0b0; stroke-width: 0.8; stroke-linecap: square"/>
     </g>
     <g id="line2d_10">
      <g>
       <use xlink:href="#m6964ed5f80" x="229.832238" y="252" style="stroke: #000000; stroke-width: 0.8"/>
      </g>
     </g>
     <g id="text_5">
      <!-- 200 -->
      <g transform="translate(220.288488 266.598437)scale(0.1 -0.1)">
       <defs>
        <path id="DejaVuSans-32" d="M 1228 531 
L 3431 531 
L 3431 0 
L 469 0 
L 469 531 
Q 828 903 1448 1529 
Q 2069 2156 2228 2338 
Q 2531 2678 2651 2914 
Q 2772 3150 2772 3378 
Q 2772 3750 2511 3984 
Q 2250 4219 1831 4219 
Q 1534 4219 1204 4116 
Q 875 4013 500 3803 
L 500 4441 
Q 881 4594 1212 4672 
Q 1544 4750 1819 4750 
Q 2544 4750 2975 4387 
Q 3406 4025 3406 3419 
Q 3406 3131 3298 2873 
Q 3191 2616 2906 2266 
Q 2828 2175 2409 1742 
Q 1991 1309 1228 531 
z
" transform="scale(0.015625)"/>
       </defs>
       <use xlink:href="#DejaVuSans-32"/>
       <use xlink:href="#DejaVuSans-30" x="63.623047"/>
       <use xlink:href="#DejaVuSans-30" x="127.246094"/>
      </g>
     </g>
    </g>
    <g id="xtick_6">
     <g id="line2d_11">
      <path d="M 269.985752 252 
L 269.985752 34.56 
" clip-path="url(#p3afb8a1967)" style="fill: none; stroke: #b0b0b0; stroke-width: 0.8; stroke-linecap: square"/>
     </g>
     <g id="line2d_12">
      <g>
       <use xlink:href="#m6964ed5f80" x="269.985752" y="252" style="stroke: #000000; stroke-width: 0.8"/>
      </g>
     </g>
     <g id="text_6">
      <!-- 250 -->
      <g transform="translate(260.442002 266.598437)scale(0.1 -0.1)">
       <use xlink:href="#DejaVuSans-32"/>
       <use xlink:href="#DejaVuSans-35" x="63.623047"/>
       <use xlink:href="#DejaVuSans-30" x="127.246094"/>
      </g>
     </g>
    </g>
    <g id="xtick_7">
     <g id="line2d_13">
      <path d="M 310.139266 252 
L 310.139266 34.56 
" clip-path="url(#p3afb8a1967)" style="fill: none; stroke: #b0b0b0; stroke-width: 0.8; stroke-linecap: square"/>
     </g>
     <g id="line2d_14">
      <g>
       <use xlink:href="#m6964ed5f80" x="310.139266" y="252" style="stroke: #000000; stroke-width: 0.8"/>
      </g>
     </g>
     <g id="text_7">
      <!-- 300 -->
      <g transform="translate(300.595516 266.598437)scale(0.1 -0.1)">
       <defs>
        <path id="DejaVuSans-33" d="M 2597 2516 
Q 3050 2419 3304 2112 
Q 3559 1806 3559 1356 
Q 3559 666 3084 287 
Q 2609 -91 1734 -91 
Q 1441 -91 1130 -33 
Q 819 25 488 141 
L 488 750 
Q 750 597 1062 519 
Q 1375 441 1716 441 
Q 2309 441 2620 675 
Q 2931 909 2931 1356 
Q 2931 1769 2642 2001 
Q 2353 2234 1838 2234 
L 1294 2234 
L 1294 2753 
L 1863 2753 
Q 2328 2753 2575 2939 
Q 2822 3125 2822 3475 
Q 2822 3834 2567 4026 
Q 2313 4219 1838 4219 
Q 1578 4219 1281 4162 
Q 984 4106 628 3988 
L 628 4550 
Q 988 4650 1302 4700 
Q 1616 4750 1894 4750 
Q 2613 4750 3031 4423 
Q 3450 4097 3450 3541 
Q 3450 3153 3228 2886 
Q 3006 2619 2597 2516 
z
" transform="scale(0.015625)"/>
       </defs>
       <use xlink:href="#DejaVuSans-33"/>
       <use xlink:href="#DejaVuSans-30" x="63.623047"/>
       <use xlink:href="#DejaVuSans-30" x="127.246094"/>
      </g>
     </g>
    </g>
    <g id="xtick_8">
     <g id="line2d_15">
      <path d="M 350.29278 252 
L 350.29278 34.56 
" clip-path="url(#p3afb8a1967)" style="fill: none; stroke: #b0b0b0; stroke-width: 0.8; stroke-linecap: square"/>
     </g>
     <g id="line2d_16">
      <g>
       <use xlink:href="#m6964ed5f80" x="350.29278" y="252" style="stroke: #000000; stroke-width: 0.8"/>
      </g>
     </g>
     <g id="text_8">
      <!-- 350 -->
      <g transform="translate(340.74903 266.598437)scale(0.1 -0.1)">
       <use xlink:href="#DejaVuSans-33"/>
       <use xlink:href="#DejaVuSans-35" x="63.623047"/>
       <use xlink:href="#DejaVuSans-30" x="127.246094"/>
      </g>
     </g>
    </g>
   </g>
   <g id="matplotlib.axis_2">
    <g id="ytick_1">
     <g id="line2d_17">
      <path d="M 54 239.383593 
L 388.8 239.383593 
" clip-path="url(#p3afb8a1967)" style="fill: none; stroke: #b0b0b0; stroke-width: 0.8; stroke-linecap: square"/>
     </g>
     <g id="line2d_18">
      <defs>
       <path id="med72c1a79a" d="M 0 0 
L -3.5 0 
" style="stroke: #000000; stroke-width: 0.8"/>
      </defs>
      <g>
       <use xlink:href="#med72c1a79a" x="54" y="239.383593" style="stroke: #000000; stroke-width: 0.8"/>
      </g>
     </g>
     <g id="text_9">
      <!-- 0.2 -->
      <g transform="translate(31.096875 243.182812)scale(0.1 -0.1)">
       <defs>
        <path id="DejaVuSans-2e" d="M 684 794 
L 1344 794 
L 1344 0 
L 684 0 
L 684 794 
z
" transform="scale(0.015625)"/>
       </defs>
       <use xlink:href="#DejaVuSans-30"/>
       <use xlink:href="#DejaVuSans-2e" x="63.623047"/>
       <use xlink:href="#DejaVuSans-32" x="95.410156"/>
      </g>
     </g>
    </g>
    <g id="ytick_2">
     <g id="line2d_19">
      <path d="M 54 214.068449 
L 388.8 214.068449 
" clip-path="url(#p3afb8a1967)" style="fill: none; stroke: #b0b0b0; stroke-width: 0.8; stroke-linecap: square"/>
     </g>
     <g id="line2d_20">
      <g>
       <use xlink:href="#med72c1a79a" x="54" y="214.068449" style="stroke: #000000; stroke-width: 0.8"/>
      </g>
     </g>
     <g id="text_10">
      <!-- 0.4 -->
      <g transform="translate(31.096875 217.867668)scale(0.1 -0.1)">
       <defs>
        <path id="DejaVuSans-34" d="M 2419 4116 
L 825 1625 
L 2419 1625 
L 2419 4116 
z
M 2253 4666 
L 3047 4666 
L 3047 1625 
L 3713 1625 
L 3713 1100 
L 3047 1100 
L 3047 0 
L 2419 0 
L 2419 1100 
L 313 1100 
L 313 1709 
L 2253 4666 
z
" transform="scale(0.015625)"/>
       </defs>
       <use xlink:href="#DejaVuSans-30"/>
       <use xlink:href="#DejaVuSans-2e" x="63.623047"/>
       <use xlink:href="#DejaVuSans-34" x="95.410156"/>
      </g>
     </g>
    </g>
    <g id="ytick_3">
     <g id="line2d_21">
      <path d="M 54 188.753305 
L 388.8 188.753305 
" clip-path="url(#p3afb8a1967)" style="fill: none; stroke: #b0b0b0; stroke-width: 0.8; stroke-linecap: square"/>
     </g>
     <g id="line2d_22">
      <g>
       <use xlink:href="#med72c1a79a" x="54" y="188.753305" style="stroke: #000000; stroke-width: 0.8"/>
      </g>
     </g>
     <g id="text_11">
      <!-- 0.6 -->
      <g transform="translate(31.096875 192.552524)scale(0.1 -0.1)">
       <defs>
        <path id="DejaVuSans-36" d="M 2113 2584 
Q 1688 2584 1439 2293 
Q 1191 2003 1191 1497 
Q 1191 994 1439 701 
Q 1688 409 2113 409 
Q 2538 409 2786 701 
Q 3034 994 3034 1497 
Q 3034 2003 2786 2293 
Q 2538 2584 2113 2584 
z
M 3366 4563 
L 3366 3988 
Q 3128 4100 2886 4159 
Q 2644 4219 2406 4219 
Q 1781 4219 1451 3797 
Q 1122 3375 1075 2522 
Q 1259 2794 1537 2939 
Q 1816 3084 2150 3084 
Q 2853 3084 3261 2657 
Q 3669 2231 3669 1497 
Q 3669 778 3244 343 
Q 2819 -91 2113 -91 
Q 1303 -91 875 529 
Q 447 1150 447 2328 
Q 447 3434 972 4092 
Q 1497 4750 2381 4750 
Q 2619 4750 2861 4703 
Q 3103 4656 3366 4563 
z
" transform="scale(0.015625)"/>
       </defs>
       <use xlink:href="#DejaVuSans-30"/>
       <use xlink:href="#DejaVuSans-2e" x="63.623047"/>
       <use xlink:href="#DejaVuSans-36" x="95.410156"/>
      </g>
     </g>
    </g>
    <g id="ytick_4">
     <g id="line2d_23">
      <path d="M 54 163.438161 
L 388.8 163.438161 
" clip-path="url(#p3afb8a1967)" style="fill: none; stroke: #b0b0b0; stroke-width: 0.8; stroke-linecap: square"/>
     </g>
     <g id="line2d_24">
      <g>
       <use xlink:href="#med72c1a79a" x="54" y="163.438161" style="stroke: #000000; stroke-width: 0.8"/>
      </g>
     </g>
     <g id="text_12">
      <!-- 0.8 -->
      <g transform="translate(31.096875 167.237379)scale(0.1 -0.1)">
       <defs>
        <path id="DejaVuSans-38" d="M 2034 2216 
Q 1584 2216 1326 1975 
Q 1069 1734 1069 1313 
Q 1069 891 1326 650 
Q 1584 409 2034 409 
Q 2484 409 2743 651 
Q 3003 894 3003 1313 
Q 3003 1734 2745 1975 
Q 2488 2216 2034 2216 
z
M 1403 2484 
Q 997 2584 770 2862 
Q 544 3141 544 3541 
Q 544 4100 942 4425 
Q 1341 4750 2034 4750 
Q 2731 4750 3128 4425 
Q 3525 4100 3525 3541 
Q 3525 3141 3298 2862 
Q 3072 2584 2669 2484 
Q 3125 2378 3379 2068 
Q 3634 1759 3634 1313 
Q 3634 634 3220 271 
Q 2806 -91 2034 -91 
Q 1263 -91 848 271 
Q 434 634 434 1313 
Q 434 1759 690 2068 
Q 947 2378 1403 2484 
z
M 1172 3481 
Q 1172 3119 1398 2916 
Q 1625 2713 2034 2713 
Q 2441 2713 2670 2916 
Q 2900 3119 2900 3481 
Q 2900 3844 2670 4047 
Q 2441 4250 2034 4250 
Q 1625 4250 1398 4047 
Q 1172 3844 1172 3481 
z
" transform="scale(0.015625)"/>
       </defs>
       <use xlink:href="#DejaVuSans-30"/>
       <use xlink:href="#DejaVuSans-2e" x="63.623047"/>
       <use xlink:href="#DejaVuSans-38" x="95.410156"/>
      </g>
     </g>
    </g>
    <g id="ytick_5">
     <g id="line2d_25">
      <path d="M 54 138.123016 
L 388.8 138.123016 
" clip-path="url(#p3afb8a1967)" style="fill: none; stroke: #b0b0b0; stroke-width: 0.8; stroke-linecap: square"/>
     </g>
     <g id="line2d_26">
      <g>
       <use xlink:href="#med72c1a79a" x="54" y="138.123016" style="stroke: #000000; stroke-width: 0.8"/>
      </g>
     </g>
     <g id="text_13">
      <!-- 1.0 -->
      <g transform="translate(31.096875 141.922235)scale(0.1 -0.1)">
       <use xlink:href="#DejaVuSans-31"/>
       <use xlink:href="#DejaVuSans-2e" x="63.623047"/>
       <use xlink:href="#DejaVuSans-30" x="95.410156"/>
      </g>
     </g>
    </g>
    <g id="ytick_6">
     <g id="line2d_27">
      <path d="M 54 112.807872 
L 388.8 112.807872 
" clip-path="url(#p3afb8a1967)" style="fill: none; stroke: #b0b0b0; stroke-width: 0.8; stroke-linecap: square"/>
     </g>
     <g id="line2d_28">
      <g>
       <use xlink:href="#med72c1a79a" x="54" y="112.807872" style="stroke: #000000; stroke-width: 0.8"/>
      </g>
     </g>
     <g id="text_14">
      <!-- 1.2 -->
      <g transform="translate(31.096875 116.607091)scale(0.1 -0.1)">
       <use xlink:href="#DejaVuSans-31"/>
       <use xlink:href="#DejaVuSans-2e" x="63.623047"/>
       <use xlink:href="#DejaVuSans-32" x="95.410156"/>
      </g>
     </g>
    </g>
    <g id="ytick_7">
     <g id="line2d_29">
      <path d="M 54 87.492728 
L 388.8 87.492728 
" clip-path="url(#p3afb8a1967)" style="fill: none; stroke: #b0b0b0; stroke-width: 0.8; stroke-linecap: square"/>
     </g>
     <g id="line2d_30">
      <g>
       <use xlink:href="#med72c1a79a" x="54" y="87.492728" style="stroke: #000000; stroke-width: 0.8"/>
      </g>
     </g>
     <g id="text_15">
      <!-- 1.4 -->
      <g transform="translate(31.096875 91.291946)scale(0.1 -0.1)">
       <use xlink:href="#DejaVuSans-31"/>
       <use xlink:href="#DejaVuSans-2e" x="63.623047"/>
       <use xlink:href="#DejaVuSans-34" x="95.410156"/>
      </g>
     </g>
    </g>
    <g id="ytick_8">
     <g id="line2d_31">
      <path d="M 54 62.177583 
L 388.8 62.177583 
" clip-path="url(#p3afb8a1967)" style="fill: none; stroke: #b0b0b0; stroke-width: 0.8; stroke-linecap: square"/>
     </g>
     <g id="line2d_32">
      <g>
       <use xlink:href="#med72c1a79a" x="54" y="62.177583" style="stroke: #000000; stroke-width: 0.8"/>
      </g>
     </g>
     <g id="text_16">
      <!-- 1.6 -->
      <g transform="translate(31.096875 65.976802)scale(0.1 -0.1)">
       <use xlink:href="#DejaVuSans-31"/>
       <use xlink:href="#DejaVuSans-2e" x="63.623047"/>
       <use xlink:href="#DejaVuSans-36" x="95.410156"/>
      </g>
     </g>
    </g>
    <g id="ytick_9">
     <g id="line2d_33">
      <path d="M 54 36.862439 
L 388.8 36.862439 
" clip-path="url(#p3afb8a1967)" style="fill: none; stroke: #b0b0b0; stroke-width: 0.8; stroke-linecap: square"/>
     </g>
     <g id="line2d_34">
      <g>
       <use xlink:href="#med72c1a79a" x="54" y="36.862439" style="stroke: #000000; stroke-width: 0.8"/>
      </g>
     </g>
     <g id="text_17">
      <!-- 1.8 -->
      <g transform="translate(31.096875 40.661658)scale(0.1 -0.1)">
       <use xlink:href="#DejaVuSans-31"/>
       <use xlink:href="#DejaVuSans-2e" x="63.623047"/>
       <use xlink:href="#DejaVuSans-38" x="95.410156"/>
      </g>
     </g>
    </g>
   </g>
   <g id="line2d_35">
    <path d="M 69.218182 44.443636 
L 70.021252 52.871724 
L 71.627393 74.759866 
L 73.233533 87.292066 
L 74.036604 99.438866 
L 74.839674 99.881647 
L 75.642744 101.723576 
L 76.445814 108.920521 
L 77.248885 115.05713 
L 78.051955 119.481648 
L 78.855025 128.774589 
L 79.658095 130.322355 
L 80.461166 132.162441 
L 81.264236 136.33573 
L 82.067306 139.431586 
L 82.870377 144.068865 
L 83.673447 147.49025 
L 84.476517 152.053387 
L 85.279587 152.635647 
L 86.082658 156.38588 
L 86.885728 157.780625 
L 87.688798 157.212498 
L 88.491869 160.366705 
L 89.294939 161.735537 
L 90.098009 166.654044 
L 90.901079 165.64018 
L 91.70415 165.917945 
L 92.50722 168.350723 
L 93.31029 168.539155 
L 94.113361 171.726872 
L 94.916431 173.277156 
L 95.719501 174.556215 
L 96.522571 175.012064 
L 97.325642 177.392939 
L 98.128712 178.478575 
L 99.734852 185.087021 
L 100.537923 182.436608 
L 101.340993 182.75237 
L 102.144063 184.71809 
L 102.947134 189.402034 
L 103.750204 189.475573 
L 104.553274 191.196643 
L 105.356344 190.959294 
L 106.159415 192.599125 
L 106.962485 191.921583 
L 107.765555 191.59551 
L 108.568626 194.173432 
L 109.371696 195.322711 
L 110.174766 195.224761 
L 110.977836 199.972767 
L 111.780907 198.20915 
L 112.583977 200.433077 
L 113.387047 197.782624 
L 114.190118 200.972465 
L 114.993188 200.121403 
L 115.796258 201.520867 
L 116.599328 204.227518 
L 119.008539 206.162949 
L 119.811609 204.887325 
L 120.61468 207.511413 
L 121.41775 207.266958 
L 122.22082 208.227144 
L 123.023891 208.409706 
L 123.826961 209.126481 
L 124.630031 208.534472 
L 125.433101 211.525869 
L 126.236172 211.470545 
L 127.039242 213.448035 
L 128.645383 210.853673 
L 129.448453 212.312575 
L 130.251523 213.320593 
L 131.054593 214.515934 
L 131.857664 213.662763 
L 132.660734 211.889406 
L 134.266875 216.202747 
L 135.069945 216.775963 
L 135.873015 216.935771 
L 136.676085 216.733358 
L 137.479156 218.245707 
L 138.282226 218.051002 
L 139.085296 218.790167 
L 140.691437 218.718023 
L 141.494507 216.802058 
L 142.297577 219.891436 
L 143.100648 220.878018 
L 143.903718 223.328227 
L 145.509858 220.359392 
L 146.312929 222.971193 
L 147.115999 219.54361 
L 147.919069 221.720092 
L 148.72214 221.933496 
L 149.52521 222.413141 
L 151.13135 224.250368 
L 151.934421 224.319284 
L 152.737491 223.171259 
L 153.540561 226.051244 
L 154.343632 224.322814 
L 155.146702 222.302758 
L 155.949772 225.421779 
L 156.752842 225.120847 
L 157.555913 226.358045 
L 158.358983 225.14987 
L 159.162053 224.321916 
L 159.965124 226.667222 
L 160.768194 226.303005 
L 162.374334 226.165324 
L 163.177405 227.347426 
L 163.980475 228.80672 
L 164.783545 226.041251 
L 165.586615 225.677464 
L 166.389686 226.396101 
L 167.192756 226.484973 
L 167.995826 226.874656 
L 168.798897 229.635642 
L 169.601967 227.83561 
L 170.405037 227.065181 
L 171.208107 229.268704 
L 172.011178 226.773952 
L 172.814248 228.242026 
L 173.617318 227.341667 
L 174.420389 226.859403 
L 175.223459 226.88904 
L 176.026529 227.418881 
L 176.829599 229.330129 
L 177.63267 228.817158 
L 178.43574 227.050201 
L 179.23881 229.176024 
L 180.041881 230.042138 
L 180.844951 228.923825 
L 181.648021 230.268047 
L 182.451091 230.962245 
L 183.254162 231.108 
L 184.057232 228.675126 
L 185.663373 229.44134 
L 186.466443 229.776123 
L 187.269513 228.50441 
L 188.072583 229.002632 
L 188.875654 230.658274 
L 189.678724 231.489825 
L 190.481794 230.706414 
L 191.284864 230.483318 
L 192.087935 229.510286 
L 192.891005 230.921821 
L 193.694075 231.618431 
L 195.300216 231.032368 
L 196.103286 229.359283 
L 196.906356 232.803126 
L 197.709427 231.089504 
L 198.512497 231.624034 
L 199.315567 232.32401 
L 200.118638 230.355081 
L 201.724778 230.843394 
L 202.527848 232.022615 
L 203.330919 232.263279 
L 204.133989 231.172998 
L 204.937059 233.433996 
L 205.74013 230.398234 
L 206.5432 231.298563 
L 207.34627 232.521862 
L 208.14934 231.154914 
L 208.952411 232.419747 
L 209.755481 230.808594 
L 211.361621 232.968982 
L 212.967762 231.434534 
L 214.573903 233.561404 
L 215.376973 233.145603 
L 216.180043 231.924831 
L 216.983113 232.056353 
L 217.786184 233.31292 
L 218.589254 232.887929 
L 219.392324 230.436475 
L 220.195395 233.096716 
L 220.998465 233.386589 
L 221.801535 231.552539 
L 222.604605 232.60767 
L 223.407676 232.21413 
L 224.210746 233.162255 
L 225.013816 231.436722 
L 225.816887 230.939856 
L 226.619957 232.460098 
L 227.423027 231.40556 
L 228.226097 232.033014 
L 229.029168 232.486762 
L 229.832238 232.674051 
L 230.635308 233.518141 
L 231.438379 232.740031 
L 232.241449 233.637735 
L 233.044519 232.462307 
L 233.847589 234.833587 
L 234.65066 233.583856 
L 235.45373 231.546257 
L 236.2568 232.316948 
L 237.05987 232.570366 
L 237.862941 231.031728 
L 238.666011 233.647965 
L 239.469081 233.793418 
L 240.272152 232.362568 
L 241.075222 234.41126 
L 241.878292 233.806339 
L 242.681362 234.264397 
L 243.484433 233.162928 
L 244.287503 233.537577 
L 245.090573 233.612999 
L 245.893644 234.01272 
L 246.696714 232.817344 
L 247.499784 234.759169 
L 248.302854 233.396265 
L 249.105925 233.783839 
L 249.908995 232.270007 
L 250.712065 233.639431 
L 251.515136 232.808563 
L 252.318206 232.549145 
L 253.121276 234.08043 
L 253.924346 234.383726 
L 254.727417 233.879398 
L 255.530487 233.883979 
L 256.333557 233.489273 
L 257.136627 232.821916 
L 257.939698 233.645667 
L 258.742768 231.563326 
L 259.545838 235.343509 
L 260.348909 234.089513 
L 261.151979 232.061447 
L 261.955049 233.077174 
L 262.758119 233.410646 
L 263.56119 234.328879 
L 264.36426 234.402485 
L 265.16733 232.359076 
L 265.970401 233.641724 
L 266.773471 233.979922 
L 267.576541 233.718673 
L 268.379611 233.832757 
L 269.182682 232.475772 
L 269.985752 234.545569 
L 270.788822 234.134965 
L 271.591893 233.133663 
L 272.394963 235.621505 
L 273.198033 234.060596 
L 274.001103 234.698336 
L 274.804174 234.042182 
L 275.607244 235.33065 
L 276.410314 234.961069 
L 277.213385 234.088534 
L 278.016455 234.827413 
L 278.819525 233.894428 
L 279.622595 233.957602 
L 280.425666 232.373923 
L 281.228736 235.168544 
L 282.031806 235.47615 
L 282.834876 234.144219 
L 284.441017 234.838446 
L 285.244087 233.78786 
L 286.047158 234.43766 
L 286.850228 235.448627 
L 287.653298 232.834445 
L 288.456368 235.202329 
L 289.259439 233.783354 
L 290.062509 234.582794 
L 290.865579 233.718078 
L 291.66865 233.959834 
L 292.47172 234.482644 
L 293.27479 234.736454 
L 294.07786 233.750312 
L 294.880931 235.452514 
L 295.684001 235.549578 
L 297.290142 234.646351 
L 298.093212 235.108817 
L 298.896282 232.24468 
L 299.699352 235.919398 
L 300.502423 234.504441 
L 301.305493 234.770817 
L 302.108563 233.172867 
L 302.911633 234.904107 
L 303.714704 235.572348 
L 304.517774 232.86333 
L 305.320844 234.910562 
L 306.123915 234.95898 
L 306.926985 233.696657 
L 307.730055 234.924285 
L 308.533125 232.451969 
L 309.336196 235.304951 
L 310.139266 234.71881 
L 310.942336 235.244005 
L 311.745407 233.301783 
L 312.548477 234.98348 
L 313.351547 235.957228 
L 314.154617 235.235682 
L 314.957688 235.770095 
L 315.760758 233.195015 
L 316.563828 235.872196 
L 317.366899 234.701327 
L 318.169969 235.122108 
L 318.973039 233.671351 
L 319.776109 234.298505 
L 320.57918 234.170198 
L 321.38225 235.996603 
L 322.18532 234.743156 
L 322.988391 234.681393 
L 323.791461 235.057097 
L 324.594531 236.102084 
L 325.397601 234.771772 
L 326.200672 235.537317 
L 327.003742 233.874155 
L 328.609882 235.469237 
L 330.216023 235.038095 
L 331.019093 233.853327 
L 331.822164 234.927639 
L 332.625234 234.864648 
L 333.428304 235.842767 
L 334.231374 235.515842 
L 335.034445 234.550932 
L 335.837515 233.785074 
L 337.443656 235.225956 
L 338.246726 234.585249 
L 339.049796 233.273145 
L 339.852866 235.291886 
L 340.655937 236.030185 
L 341.459007 234.263223 
L 342.262077 235.065843 
L 343.065148 232.505488 
L 343.868218 236.044657 
L 344.671288 236.541068 
L 345.474358 235.309649 
L 346.277429 233.744621 
L 347.080499 235.032427 
L 347.883569 234.218694 
L 348.686639 234.918847 
L 349.48971 236.395872 
L 350.29278 236.258001 
L 351.09585 235.502496 
L 351.898921 235.05122 
L 352.701991 235.45256 
L 353.505061 235.081202 
L 354.308131 235.439105 
L 355.111202 234.486251 
L 355.914272 235.71534 
L 356.717342 234.767237 
L 359.126553 236.334668 
L 359.929623 232.920625 
L 360.732694 235.587371 
L 361.535764 234.357165 
L 362.338834 233.484622 
L 363.141905 234.917207 
L 363.944975 235.14212 
L 364.748045 234.338624 
L 365.551115 235.061964 
L 366.354186 237.036473 
L 367.157256 235.167449 
L 367.960326 235.788196 
L 368.763396 234.204285 
L 370.369537 236.429971 
L 371.172607 234.529788 
L 372.778748 236.542351 
L 373.581818 237.060422 
L 373.581818 237.060422 
" clip-path="url(#p3afb8a1967)" style="fill: none; stroke: #1f77b4; stroke-width: 1.5; stroke-linecap: square"/>
   </g>
   <g id="line2d_36">
    <path d="M 69.218182 159.759161 
L 70.824322 124.880752 
L 71.627393 108.82168 
L 73.233533 91.343219 
L 74.036604 88.229929 
L 74.839674 86.68135 
L 75.642744 88.021992 
L 76.445814 91.586589 
L 77.248885 98.259904 
L 78.051955 107.923611 
L 79.658095 122.772439 
L 81.264236 131.942575 
L 82.067306 135.103398 
L 82.870377 137.207025 
L 83.673447 138.281277 
L 84.476517 142.429282 
L 85.279587 145.098594 
L 86.082658 151.238568 
L 87.688798 156.985057 
L 88.491869 158.379515 
L 90.098009 164.140787 
L 90.901079 165.684367 
L 91.70415 166.643289 
L 92.50722 169.680155 
L 93.31029 169.831904 
L 94.113361 174.970813 
L 94.916431 174.13293 
L 95.719501 176.61763 
L 96.522571 177.918317 
L 97.325642 178.252312 
L 98.931782 180.587536 
L 100.537923 185.561652 
L 101.340993 185.483765 
L 102.144063 188.930597 
L 102.947134 191.409141 
L 103.750204 192.02779 
L 104.553274 192.394201 
L 105.356344 194.13305 
L 106.159415 194.022556 
L 106.962485 196.216724 
L 107.765555 196.367387 
L 108.568626 197.22244 
L 110.174766 199.169035 
L 110.977836 200.93464 
L 111.780907 202.360398 
L 114.190118 205.021295 
L 114.993188 205.508844 
L 116.599328 208.148425 
L 117.402399 208.102619 
L 118.205469 209.305329 
L 119.008539 210.130179 
L 119.811609 210.271767 
L 120.61468 211.724029 
L 121.41775 211.987344 
L 122.22082 213.349878 
L 123.023891 214.005578 
L 123.826961 214.156663 
L 124.630031 214.871946 
L 125.433101 215.113114 
L 126.236172 215.556397 
L 127.039242 217.881176 
L 127.842312 217.217931 
L 128.645383 217.844497 
L 129.448453 218.632541 
L 130.251523 219.609222 
L 131.054593 220.368937 
L 131.857664 220.451486 
L 132.660734 221.344091 
L 133.463804 222.009275 
L 134.266875 222.353204 
L 135.069945 223.008135 
L 135.873015 222.991295 
L 136.676085 223.4135 
L 139.888367 225.853548 
L 140.691437 226.139873 
L 142.297577 227.093171 
L 143.100648 226.844717 
L 143.903718 227.394351 
L 144.706788 227.268026 
L 146.312929 228.627921 
L 147.115999 228.607741 
L 147.919069 228.414318 
L 148.72214 229.247785 
L 149.52521 229.86664 
L 150.32828 230.054198 
L 151.13135 230.411946 
L 151.934421 230.598737 
L 152.737491 231.049539 
L 154.343632 231.238251 
L 155.146702 231.784164 
L 155.949772 232.067628 
L 156.752842 232.042793 
L 157.555913 232.533619 
L 158.358983 232.592754 
L 159.162053 232.209759 
L 159.965124 232.793775 
L 160.768194 232.444381 
L 161.571264 232.990056 
L 162.374334 233.302512 
L 163.980475 233.643815 
L 164.783545 233.629233 
L 165.586615 233.858774 
L 166.389686 234.348727 
L 168.798897 235.192228 
L 169.601967 235.363876 
L 170.405037 235.2371 
L 171.208107 235.683297 
L 172.011178 235.69179 
L 173.617318 235.453426 
L 174.420389 235.794024 
L 175.223459 235.802653 
L 176.026529 236.391048 
L 176.829599 236.398843 
L 177.63267 236.776412 
L 182.451091 237.53088 
L 183.254162 237.819309 
L 184.860302 237.584252 
L 185.663373 238.120617 
L 186.466443 238.010005 
L 187.269513 237.507405 
L 188.072583 237.838021 
L 189.678724 238.128706 
L 190.481794 237.72796 
L 192.087935 238.005012 
L 192.891005 237.950219 
L 194.497146 238.683332 
L 200.118638 239.135553 
L 200.921708 239.034637 
L 202.527848 239.350053 
L 204.937059 239.467967 
L 205.74013 239.339952 
L 206.5432 239.353848 
L 207.34627 239.814751 
L 208.14934 239.480084 
L 210.558551 239.597067 
L 211.361621 240.025806 
L 212.164692 239.72879 
L 212.967762 239.617039 
L 213.770832 239.669496 
L 214.573903 239.902101 
L 216.983113 240.23749 
L 218.589254 240.056042 
L 219.392324 240.334622 
L 220.195395 240.448928 
L 220.998465 240.293648 
L 221.801535 239.983823 
L 222.604605 239.91889 
L 223.407676 240.256275 
L 224.210746 240.340672 
L 225.013816 240.539927 
L 225.816887 240.098597 
L 228.226097 240.702778 
L 229.029168 240.743873 
L 229.832238 240.665182 
L 230.635308 240.858559 
L 231.438379 240.68468 
L 232.241449 240.698047 
L 233.847589 240.909077 
L 234.65066 240.773045 
L 235.45373 240.877949 
L 236.2568 240.843764 
L 237.05987 240.961744 
L 240.272152 240.484859 
L 241.075222 240.445809 
L 241.878292 240.822482 
L 242.681362 240.787442 
L 243.484433 241.063501 
L 244.287503 241.074938 
L 246.696714 240.73294 
L 247.499784 240.791421 
L 248.302854 241.166442 
L 249.105925 240.967752 
L 249.908995 241.122684 
L 251.515136 240.826751 
L 252.318206 240.990642 
L 253.121276 240.888004 
L 253.924346 241.03706 
L 254.727417 240.931389 
L 256.333557 241.105518 
L 257.136627 241.032348 
L 257.939698 241.08003 
L 258.742768 241.318963 
L 260.348909 241.206527 
L 261.955049 241.447349 
L 263.56119 241.024421 
L 265.16733 240.7905 
L 265.970401 241.119707 
L 266.773471 241.090127 
L 268.379611 241.365617 
L 269.182682 241.339617 
L 269.985752 241.646987 
L 270.788822 241.576994 
L 272.394963 241.585112 
L 274.001103 241.364889 
L 276.410314 241.521166 
L 278.016455 241.319004 
L 278.819525 241.332543 
L 279.622595 241.555397 
L 281.228736 241.545722 
L 286.047158 241.488253 
L 286.850228 241.375462 
L 288.456368 241.422042 
L 291.66865 241.423608 
L 292.47172 241.246312 
L 293.27479 241.426036 
L 295.684001 241.577498 
L 296.487071 241.750919 
L 298.093212 241.6831 
L 299.699352 241.347352 
L 301.305493 241.592278 
L 302.108563 241.493016 
L 302.911633 241.592813 
L 303.714704 241.867566 
L 304.517774 241.583704 
L 305.320844 241.708561 
L 306.926985 241.546988 
L 310.139266 241.766125 
L 312.548477 241.705719 
L 313.351547 241.88362 
L 314.957688 241.843641 
L 315.760758 241.708245 
L 316.563828 241.800435 
L 317.366899 241.5534 
L 318.973039 241.526192 
L 319.776109 241.754238 
L 320.57918 241.558727 
L 322.18532 241.512765 
L 322.988391 241.6734 
L 324.594531 241.696147 
L 325.397601 241.816733 
L 327.003742 241.764856 
L 331.019093 241.875039 
L 332.625234 241.715532 
L 335.837515 241.812514 
L 337.443656 241.942437 
L 338.246726 241.787115 
L 343.065148 241.66596 
L 343.868218 241.873601 
L 345.474358 241.920704 
L 346.277429 241.952676 
L 347.883569 241.797709 
L 349.48971 241.836582 
L 350.29278 241.861431 
L 351.09585 242.033612 
L 351.898921 241.995478 
L 352.701991 242.116364 
L 354.308131 241.851122 
L 356.717342 241.722766 
L 357.520413 241.874682 
L 359.929623 241.783447 
L 360.732694 241.692931 
L 363.944975 241.881957 
L 364.748045 241.990745 
L 371.172607 241.845046 
L 371.975678 241.909829 
L 373.581818 241.82008 
L 373.581818 241.82008 
" clip-path="url(#p3afb8a1967)" style="fill: none; stroke: #ff7f0e; stroke-width: 1.5; stroke-linecap: square"/>
   </g>
   <g id="patch_3">
    <path d="M 54 252 
L 54 34.56 
" style="fill: none; stroke: #000000; stroke-width: 0.8; stroke-linejoin: miter; stroke-linecap: square"/>
   </g>
   <g id="patch_4">
    <path d="M 388.8 252 
L 388.8 34.56 
" style="fill: none; stroke: #000000; stroke-width: 0.8; stroke-linejoin: miter; stroke-linecap: square"/>
   </g>
   <g id="patch_5">
    <path d="M 54 252 
L 388.8 252 
" style="fill: none; stroke: #000000; stroke-width: 0.8; stroke-linejoin: miter; stroke-linecap: square"/>
   </g>
   <g id="patch_6">
    <path d="M 54 34.56 
L 388.8 34.56 
" style="fill: none; stroke: #000000; stroke-width: 0.8; stroke-linejoin: miter; stroke-linecap: square"/>
   </g>
   <g id="legend_1">
    <g id="patch_7">
     <path d="M 304.03125 71.91625 
L 381.8 71.91625 
Q 383.8 71.91625 383.8 69.91625 
L 383.8 41.56 
Q 383.8 39.56 381.8 39.56 
L 304.03125 39.56 
Q 302.03125 39.56 302.03125 41.56 
L 302.03125 69.91625 
Q 302.03125 71.91625 304.03125 71.91625 
z
" style="fill: #ffffff; opacity: 0.8; stroke: #cccccc; stroke-linejoin: miter"/>
    </g>
    <g id="line2d_37">
     <path d="M 306.03125 47.658437 
L 316.03125 47.658437 
L 326.03125 47.658437 
" style="fill: none; stroke: #1f77b4; stroke-width: 1.5; stroke-linecap: square"/>
    </g>
    <g id="text_18">
     <!-- train loss -->
     <g transform="translate(334.03125 51.158437)scale(0.1 -0.1)">
      <defs>
       <path id="DejaVuSans-74" d="M 1172 4494 
L 1172 3500 
L 2356 3500 
L 2356 3053 
L 1172 3053 
L 1172 1153 
Q 1172 725 1289 603 
Q 1406 481 1766 481 
L 2356 481 
L 2356 0 
L 1766 0 
Q 1100 0 847 248 
Q 594 497 594 1153 
L 594 3053 
L 172 3053 
L 172 3500 
L 594 3500 
L 594 4494 
L 1172 4494 
z
" transform="scale(0.015625)"/>
       <path id="DejaVuSans-72" d="M 2631 2963 
Q 2534 3019 2420 3045 
Q 2306 3072 2169 3072 
Q 1681 3072 1420 2755 
Q 1159 2438 1159 1844 
L 1159 0 
L 581 0 
L 581 3500 
L 1159 3500 
L 1159 2956 
Q 1341 3275 1631 3429 
Q 1922 3584 2338 3584 
Q 2397 3584 2469 3576 
Q 2541 3569 2628 3553 
L 2631 2963 
z
" transform="scale(0.015625)"/>
       <path id="DejaVuSans-61" d="M 2194 1759 
Q 1497 1759 1228 1600 
Q 959 1441 959 1056 
Q 959 750 1161 570 
Q 1363 391 1709 391 
Q 2188 391 2477 730 
Q 2766 1069 2766 1631 
L 2766 1759 
L 2194 1759 
z
M 3341 1997 
L 3341 0 
L 2766 0 
L 2766 531 
Q 2569 213 2275 61 
Q 1981 -91 1556 -91 
Q 1019 -91 701 211 
Q 384 513 384 1019 
Q 384 1609 779 1909 
Q 1175 2209 1959 2209 
L 2766 2209 
L 2766 2266 
Q 2766 2663 2505 2880 
Q 2244 3097 1772 3097 
Q 1472 3097 1187 3025 
Q 903 2953 641 2809 
L 641 3341 
Q 956 3463 1253 3523 
Q 1550 3584 1831 3584 
Q 2591 3584 2966 3190 
Q 3341 2797 3341 1997 
z
" transform="scale(0.015625)"/>
       <path id="DejaVuSans-69" d="M 603 3500 
L 1178 3500 
L 1178 0 
L 603 0 
L 603 3500 
z
M 603 4863 
L 1178 4863 
L 1178 4134 
L 603 4134 
L 603 4863 
z
" transform="scale(0.015625)"/>
       <path id="DejaVuSans-6e" d="M 3513 2113 
L 3513 0 
L 2938 0 
L 2938 2094 
Q 2938 2591 2744 2837 
Q 2550 3084 2163 3084 
Q 1697 3084 1428 2787 
Q 1159 2491 1159 1978 
L 1159 0 
L 581 0 
L 581 3500 
L 1159 3500 
L 1159 2956 
Q 1366 3272 1645 3428 
Q 1925 3584 2291 3584 
Q 2894 3584 3203 3211 
Q 3513 2838 3513 2113 
z
" transform="scale(0.015625)"/>
       <path id="DejaVuSans-20" transform="scale(0.015625)"/>
       <path id="DejaVuSans-6c" d="M 603 4863 
L 1178 4863 
L 1178 0 
L 603 0 
L 603 4863 
z
" transform="scale(0.015625)"/>
       <path id="DejaVuSans-6f" d="M 1959 3097 
Q 1497 3097 1228 2736 
Q 959 2375 959 1747 
Q 959 1119 1226 758 
Q 1494 397 1959 397 
Q 2419 397 2687 759 
Q 2956 1122 2956 1747 
Q 2956 2369 2687 2733 
Q 2419 3097 1959 3097 
z
M 1959 3584 
Q 2709 3584 3137 3096 
Q 3566 2609 3566 1747 
Q 3566 888 3137 398 
Q 2709 -91 1959 -91 
Q 1206 -91 779 398 
Q 353 888 353 1747 
Q 353 2609 779 3096 
Q 1206 3584 1959 3584 
z
" transform="scale(0.015625)"/>
       <path id="DejaVuSans-73" d="M 2834 3397 
L 2834 2853 
Q 2591 2978 2328 3040 
Q 2066 3103 1784 3103 
Q 1356 3103 1142 2972 
Q 928 2841 928 2578 
Q 928 2378 1081 2264 
Q 1234 2150 1697 2047 
L 1894 2003 
Q 2506 1872 2764 1633 
Q 3022 1394 3022 966 
Q 3022 478 2636 193 
Q 2250 -91 1575 -91 
Q 1294 -91 989 -36 
Q 684 19 347 128 
L 347 722 
Q 666 556 975 473 
Q 1284 391 1588 391 
Q 1994 391 2212 530 
Q 2431 669 2431 922 
Q 2431 1156 2273 1281 
Q 2116 1406 1581 1522 
L 1381 1569 
Q 847 1681 609 1914 
Q 372 2147 372 2553 
Q 372 3047 722 3315 
Q 1072 3584 1716 3584 
Q 2034 3584 2315 3537 
Q 2597 3491 2834 3397 
z
" transform="scale(0.015625)"/>
      </defs>
      <use xlink:href="#DejaVuSans-74"/>
      <use xlink:href="#DejaVuSans-72" x="39.208984"/>
      <use xlink:href="#DejaVuSans-61" x="80.322266"/>
      <use xlink:href="#DejaVuSans-69" x="141.601562"/>
      <use xlink:href="#DejaVuSans-6e" x="169.384766"/>
      <use xlink:href="#DejaVuSans-20" x="232.763672"/>
      <use xlink:href="#DejaVuSans-6c" x="264.550781"/>
      <use xlink:href="#DejaVuSans-6f" x="292.333984"/>
      <use xlink:href="#DejaVuSans-73" x="353.515625"/>
      <use xlink:href="#DejaVuSans-73" x="405.615234"/>
     </g>
    </g>
    <g id="line2d_38">
     <path d="M 306.03125 62.336562 
L 316.03125 62.336562 
L 326.03125 62.336562 
" style="fill: none; stroke: #ff7f0e; stroke-width: 1.5; stroke-linecap: square"/>
    </g>
    <g id="text_19">
     <!-- val loss -->
     <g transform="translate(334.03125 65.836562)scale(0.1 -0.1)">
      <defs>
       <path id="DejaVuSans-76" d="M 191 3500 
L 800 3500 
L 1894 563 
L 2988 3500 
L 3597 3500 
L 2284 0 
L 1503 0 
L 191 3500 
z
" transform="scale(0.015625)"/>
      </defs>
      <use xlink:href="#DejaVuSans-76"/>
      <use xlink:href="#DejaVuSans-61" x="59.179688"/>
      <use xlink:href="#DejaVuSans-6c" x="120.458984"/>
      <use xlink:href="#DejaVuSans-20" x="148.242188"/>
      <use xlink:href="#DejaVuSans-6c" x="180.029297"/>
      <use xlink:href="#DejaVuSans-6f" x="207.8125"/>
      <use xlink:href="#DejaVuSans-73" x="268.994141"/>
      <use xlink:href="#DejaVuSans-73" x="321.09375"/>
     </g>
    </g>
   </g>
  </g>
 </g>
 <defs>
  <clipPath id="p3afb8a1967">
   <rect x="54" y="34.56" width="334.8" height="217.44"/>
  </clipPath>
 </defs>
</svg>
